<svg xmlns="http://www.w3.org/2000/svg" viewBox="0 0 14.67 14.67"><defs><style>.cls-1{fill:#111D5E;}</style></defs><g id="Calque_2" data-name="Calque 2"><g id="objects"><path class="cls-1" d="M13.81,8.63V2.26A1.15,1.15,0,0,0,13.52,0a1.16,1.16,0,0,0-1.11.86H6a1.15,1.15,0,0,0-2.26.29,1.16,1.16,0,0,0,.86,1.11V8.63A1.15,1.15,0,1,0,6,10H7.93a.29.29,0,0,0,0-.58H6a1.15,1.15,0,0,0-.83-.82V2.26A1.18,1.18,0,0,0,6,1.43h6.37a1.17,1.17,0,0,0,.82.83V8.63a1.14,1.14,0,0,0-.82.82h-1.9a.29.29,0,0,0,0,.58h1.9a1.15,1.15,0,1,0,1.4-1.4ZM5.5,9.74a.58.58,0,1,1-.57-.57A.57.57,0,0,1,5.5,9.74Zm-.57-8a.58.58,0,1,1,.57-.57A.58.58,0,0,1,4.93,1.72Zm8-.57a.57.57,0,1,1,.57.57A.57.57,0,0,1,13,1.15Zm.57,9.16a.57.57,0,1,1,.57-.57A.56.56,0,0,1,13.52,10.31Z"/><circle class="cls-1" cx="9.22" cy="9.74" r="0.29"/><path class="cls-1" d="M10.37,5.44a.28.28,0,0,0-.29-.28H9.51V4.58a.29.29,0,0,0-.57,0v.58H8.36a.28.28,0,0,0-.28.28.29.29,0,0,0,.28.29h.58V6.3a.29.29,0,1,0,.57,0V5.73h.57A.29.29,0,0,0,10.37,5.44Z"/><path class="cls-1" d="M2.58,11.69.08,14.18a.28.28,0,0,0,0,.4.29.29,0,0,0,.21.09.28.28,0,0,0,.2-.09L3,12.09a.28.28,0,0,0,0-.4.27.27,0,0,0-.4,0Z"/><path class="cls-1" d="M6,11.69,3.52,14.18a.29.29,0,0,0,.2.49.29.29,0,0,0,.21-.09l2.49-2.49a.28.28,0,0,0,0-.4A.28.28,0,0,0,6,11.69Z"/><path class="cls-1" d="M2.58,8.25.08,10.74a.3.3,0,0,0,0,.41.32.32,0,0,0,.21.08.32.32,0,0,0,.2-.08L3,8.65a.28.28,0,1,0-.4-.4Z"/></g></g></svg>