<svg xmlns="http://www.w3.org/2000/svg" viewBox="0 0 14.49 14.49"><defs><style>.cls-1{fill:#111D5E;}</style></defs><g id="Calque_2" data-name="Calque 2"><g id="objects"><path class="cls-1" d="M3.27,13.33H4.68v.46H3.27Z"/><path class="cls-1" d="M3.27.94H4.68V1.4H3.27Z"/><path class="cls-1" d="M8.88,7.25h.94v.46H8.88Z"/><path class="cls-1" d="M12.16,5.61H10.05v-.7a.23.23,0,0,0-.23-.23H9.58V4.44a.7.7,0,0,0-.7-.7H8V1.17A1.17,1.17,0,0,0,6.78,0H1.17A1.17,1.17,0,0,0,0,1.17V13.33a1.16,1.16,0,0,0,1.17,1.16H6.78A1.17,1.17,0,0,0,8,13.33V9.82a2.28,2.28,0,0,0,.82-1.17H9.93a2.33,2.33,0,1,0,2.23-3Zm-3,0V5.14h.46v.47Zm-.24-1.4a.23.23,0,0,1,.24.23v.24H8.88a.23.23,0,0,0-.23.23v.7H8V4.21ZM6.78,14H1.17a.7.7,0,0,1-.7-.7v-.24h7v.24A.7.7,0,0,1,6.78,14Zm.7-1.41h-7V1.17a.7.7,0,0,1,.7-.7H6.78a.7.7,0,0,1,.7.7V5.61H7.25V1.87A.23.23,0,0,0,7,1.64H.94a.23.23,0,0,0-.24.23V12.16a.23.23,0,0,0,.24.23H7a.23.23,0,0,0,.24-.23v-2l.23-.09Zm-.7-7H6.55a2.34,2.34,0,0,0,0,4.68l.23,0v1.65H1.17V2.1H6.78Zm5.38,4.21a1.87,1.87,0,0,1-1.83-1.46.23.23,0,0,0-.22-.18H8.6a.24.24,0,0,0-.23.18A1.87,1.87,0,1,1,6.55,6.08h5.61a1.87,1.87,0,0,1,0,3.74Z"/><path class="cls-1" d="M7.71,7.25H7.25V6.78A.23.23,0,0,0,7,6.55H6.08a.23.23,0,0,0-.24.23v.47H5.38a.23.23,0,0,0-.24.23v.94a.23.23,0,0,0,.24.23h.46v.47a.23.23,0,0,0,.24.23H7a.23.23,0,0,0,.24-.23V8.65h.46A.23.23,0,0,0,8,8.42V7.48A.23.23,0,0,0,7.71,7.25Zm-.23.93H7a.23.23,0,0,0-.23.24v.46H6.31V8.42a.23.23,0,0,0-.23-.24H5.61V7.71h.47a.23.23,0,0,0,.23-.23V7h.47v.47A.23.23,0,0,0,7,7.71h.47Z"/><path class="cls-1" d="M12.16,7a.23.23,0,0,1,.23.24h.47a.71.71,0,0,0-1.41,0h.47A.24.24,0,0,1,12.16,7Z"/><path class="cls-1" d="M12.16,8.88a.23.23,0,0,1-.24-.23h-.47a.71.71,0,0,0,1.41,0h-.47A.23.23,0,0,1,12.16,8.88Z"/><path class="cls-1" d="M11.22,8a.24.24,0,0,1,.23-.24V7.25a.7.7,0,1,0,0,1.4V8.18A.23.23,0,0,1,11.22,8Z"/><path class="cls-1" d="M12.86,7.25v.46a.23.23,0,0,1,.23.24.23.23,0,0,1-.23.23v.47a.7.7,0,1,0,0-1.4Z"/></g></g></svg>