<svg xmlns="http://www.w3.org/2000/svg" viewBox="0 0 12.73 15.77"><defs><style>.cls-1{fill:#111D5E;}</style></defs><g id="Calque_2" data-name="Calque 2"><g id="objects"><path class="cls-1" d="M9.64,8.2l.19-1.07.32,1.08h0a.24.24,0,0,0,.22.16h0a.26.26,0,0,0,.23-.17h0l.3-1.08.21,1.07a.19.19,0,1,0,.38-.07l-.32-1.72A.27.27,0,0,0,11,6.22a.24.24,0,0,0-.24.17l-.34,1.19L10,6.38a.26.26,0,0,0-.24-.16.25.25,0,0,0-.22.19L9.25,8.13a.2.2,0,0,0,.16.23.2.2,0,0,0,.23-.16Z"/><path class="cls-1" d="M5.43,7.3a1.07,1.07,0,0,0,1,1.08.84.84,0,0,0,.59-.23l.09-.1a.19.19,0,0,0,0-.27.2.2,0,0,0-.28,0l0,.05A.48.48,0,0,1,6.47,8a.66.66,0,0,1-.65-.68.67.67,0,0,1,.65-.69.55.55,0,0,1,.35.12.21.21,0,0,0,.28-.05.19.19,0,0,0,0-.27,1,1,0,0,0-.58-.19,1.07,1.07,0,0,0-1,1.08Z"/><path class="cls-1" d="M8.86,6.87a.66.66,0,0,0-.66-.65H7.78a.2.2,0,0,0-.2.2V8.18a.2.2,0,1,0,.4,0V7.77l.54.55a.19.19,0,0,0,.28,0A.19.19,0,0,0,8.8,8l-.55-.55a.63.63,0,0,0,.61-.62ZM8.2,7.1H8V6.61H8.2a.27.27,0,0,1,.26.26A.25.25,0,0,1,8.2,7.1Z"/><path class="cls-1" d="M7.74,15.77H1.85A1.85,1.85,0,0,1,0,13.92V1.85A1.85,1.85,0,0,1,1.85,0H7.74A1.85,1.85,0,0,1,9.59,1.85V5.68h-.3V1.85A1.56,1.56,0,0,0,7.74.29H1.85A1.56,1.56,0,0,0,.29,1.85V13.92a1.55,1.55,0,0,0,1.56,1.55H7.74a1.55,1.55,0,0,0,1.55-1.55V9.09h.3v4.83A1.85,1.85,0,0,1,7.74,15.77Z"/><rect class="cls-1" x="1.99" width="5.62" height="0.29"/><path class="cls-1" d="M7,1.08H2.48l-.59-1H7.6ZM2.56.93H6.87L7.33.22H2.14Z"/><path class="cls-1" d="M5,14.71a.43.43,0,0,1-.43-.43.43.43,0,0,1,.86,0A.43.43,0,0,1,5,14.71ZM5,14a.28.28,0,0,0-.28.28.28.28,0,1,0,.56,0A.28.28,0,0,0,5,14Z"/><path class="cls-1" d="M12.73,9.16H3.83V5.61h8.9ZM4,9h8.61V5.76H4Z"/></g></g></svg>