<svg xmlns="http://www.w3.org/2000/svg" viewBox="0 0 15.67 16.51"><defs><style>.cls-1{fill:#111D5E;}</style></defs><g id="Calque_2" data-name="Calque 2"><g id="objects"><path class="cls-1" d="M11.31,7V5.73A.39.39,0,0,0,11,5.36a.38.38,0,0,0-.43.14,2.88,2.88,0,0,1-.68.67.24.24,0,0,0,.28.4A3.36,3.36,0,0,0,10.83,6V9.83A3.86,3.86,0,0,0,8.22,8.57V7.26a4.21,4.21,0,0,0,.93-.17.25.25,0,0,0,.16-.31A.25.25,0,0,0,9,6.63a5.51,5.51,0,0,1-1.67.16A1.13,1.13,0,0,0,7.25,9V10.4A.9.9,0,1,0,9,10.4V9.22a3.08,3.08,0,0,1,1.57,1.11.37.37,0,0,0,.31.17l.12,0a.4.4,0,0,0,.27-.37V8.89a1,1,0,0,0,.94-1,1,1,0,0,0-.94-1Zm-4,1.61a.65.65,0,1,1,0-1.29h.41V8.56ZM8.56,10.4a.42.42,0,0,1-.83,0V9.05a4.31,4.31,0,0,1,.83,0Zm2.75-2v-1a.49.49,0,0,1,.46.49A.48.48,0,0,1,11.31,8.4Z"/><path class="cls-1" d="M13.39,12.76a1.12,1.12,0,0,0-.88.37,1.09,1.09,0,0,0-1.79.23A1.36,1.36,0,0,0,11.11,15h0l0,0,1.14,1a.34.34,0,0,0,.44,0l1.14-1,0,0h0a1.36,1.36,0,0,0,.39-1.66,1.13,1.13,0,0,0-.91-.6Zm.21,1.89h0l-1.09.92-1.09-.92h0a.88.88,0,0,1-.27-1.07.61.61,0,0,1,1.13.11.23.23,0,0,0,.23.18.23.23,0,0,0,.23-.18.61.61,0,0,1,.62-.44.59.59,0,0,1,.5.33h0A.86.86,0,0,1,13.6,14.65Z"/><path class="cls-1" d="M13.34,0a2.33,2.33,0,1,0,2.33,2.32A2.32,2.32,0,0,0,13.34,0Zm0,4.16a1.84,1.84,0,1,1,1.84-1.84A1.84,1.84,0,0,1,13.34,4.16Z"/><path class="cls-1" d="M2.53,4.18H6.44a.24.24,0,0,0,0-.48H2.53a.24.24,0,0,0,0,.48Z"/><path class="cls-1" d="M5.38,5a.24.24,0,0,0-.24-.24H2.53A.24.24,0,0,0,2.29,5a.24.24,0,0,0,.24.24H5.14A.24.24,0,0,0,5.38,5Z"/><path class="cls-1" d="M4.34,5.82H2.53a.24.24,0,0,0-.24.24.24.24,0,0,0,.24.24H4.34a.24.24,0,0,0,.24-.24A.24.24,0,0,0,4.34,5.82Z"/><path class="cls-1" d="M4.34,6.93H2.53a.24.24,0,0,0,0,.48H4.34a.24.24,0,0,0,0-.48Z"/><path class="cls-1" d="M13.55,8.32A4.34,4.34,0,0,0,10,4.06V.87A.87.87,0,0,0,9.11,0H2a.87.87,0,0,0-.87.87v9.47a2.62,2.62,0,0,0,0,4.25v1.05a.87.87,0,0,0,.87.87H3.08a.24.24,0,0,0,.24-.24A.24.24,0,0,0,3.08,16H2a.4.4,0,0,1-.39-.39v-.78a2.62,2.62,0,1,0,0-4.8V.87A.39.39,0,0,1,2,.48H3.18l.24.77a.69.69,0,0,0,.67.49H7a.7.7,0,0,0,.67-.49L7.88.48H9.11a.38.38,0,0,1,.38.39V4H9.22a4.33,4.33,0,0,0,0,8.65h.27v3a.39.39,0,0,1-.38.39H4.21a.23.23,0,0,0-.24.24.24.24,0,0,0,.24.24h4.9a.87.87,0,0,0,.87-.87V12.58a4.34,4.34,0,0,0,3.57-4.26Zm-10.93,2A2.14,2.14,0,1,1,.48,12.46,2.14,2.14,0,0,1,2.62,10.33ZM7.18,1.11a.2.2,0,0,1-.2.15H4.09a.22.22,0,0,1-.21-.15L3.69.48H7.38Zm2,11.05a3.84,3.84,0,1,1,3.85-3.84A3.85,3.85,0,0,1,9.22,12.16Z"/><path class="cls-1" d="M1.64,12.36a.25.25,0,0,0,.25-.24v-.38a.25.25,0,0,0-.49,0v.38A.24.24,0,0,0,1.64,12.36Z"/><path class="cls-1" d="M3.59,12.36a.24.24,0,0,0,.24-.24v-.38a.24.24,0,0,0-.48,0v.38A.24.24,0,0,0,3.59,12.36Z"/><path class="cls-1" d="M1.78,13.41a1.08,1.08,0,0,0,.83.39,1.06,1.06,0,0,0,.84-.4.24.24,0,0,0-.38-.3.58.58,0,0,1-.46.22.56.56,0,0,1-.45-.22.25.25,0,0,0-.38.31Z"/><path class="cls-1" d="M12.73,2V1.69a.24.24,0,1,0-.48,0V2a.24.24,0,1,0,.48,0Z"/><path class="cls-1" d="M14.2,1.45a.25.25,0,0,0-.25.24V2a.24.24,0,0,0,.25.24A.24.24,0,0,0,14.44,2V1.69A.24.24,0,0,0,14.2,1.45Z"/><path class="cls-1" d="M13.34,2.5a1,1,0,0,0-.76.36.25.25,0,0,0,0,.34.24.24,0,0,0,.15.06A.23.23,0,0,0,13,3.17.49.49,0,0,1,13.34,3a.51.51,0,0,1,.38.18.24.24,0,1,0,.37-.3,1,1,0,0,0-.75-.36Z"/></g></g></svg>