<svg xmlns="http://www.w3.org/2000/svg" viewBox="0 0 6.08 6.11"><defs><style>.cls-1{fill:#111D5E;}</style></defs><g id="Calque_2" data-name="Calque 2"><g id="objects"><path class="cls-1" d="M6.08,2.88a.47.47,0,0,0-.46-.46H3.75L4,1.88A2,2,0,0,0,3.88.15.31.31,0,0,0,3.31.3a2,2,0,0,1-.5,1.31L1.62,3H1.56V2.63a.15.15,0,0,0-.15-.15H.15A.15.15,0,0,0,0,2.63v3.2A.15.15,0,0,0,.15,6H1.41a.15.15,0,0,0,.15-.15V5.57h0l.19.15a1.73,1.73,0,0,0,1.09.39H5.62a.46.46,0,0,0,.46-.48C6.06,5.38,6.08,3.13,6.08,2.88Z"/></g></g></svg>