<svg xmlns="http://www.w3.org/2000/svg" viewBox="0 0 12.33 13.38"><defs><style>.cls-1{fill:#111D5E;}</style></defs><g id="Calque_2" data-name="Calque 2"><g id="objects"><path class="cls-1" d="M7.32,8.94H3.53a.38.38,0,0,0-.39.39.39.39,0,0,0,.39.39H7.32a.4.4,0,0,0,.39-.39A.39.39,0,0,0,7.32,8.94Z"/><path class="cls-1" d="M3.14,7.76a.38.38,0,0,0,.39.39H7.32a.39.39,0,0,0,0-.78H3.53A.38.38,0,0,0,3.14,7.76Z"/><path class="cls-1" d="M7.32,10.5H3.53a.4.4,0,0,0,0,.79H7.32a.4.4,0,0,0,0-.79Z"/><path class="cls-1" d="M2,8.94a.38.38,0,0,0-.39.39.39.39,0,0,0,.78,0A.38.38,0,0,0,2,8.94Z"/><path class="cls-1" d="M2,10.5a.4.4,0,1,0,.39.39A.39.39,0,0,0,2,10.5Z"/><path class="cls-1" d="M10.41,0H1.88A1.88,1.88,0,0,0,0,1.88V13a.4.4,0,0,0,.39.4H8.88a.39.39,0,0,0,.39-.4V7.24h2.67a.39.39,0,0,0,.39-.39V1.92A1.92,1.92,0,0,0,10.41,0ZM8.49,1.92V12.59H.78V1.88A1.11,1.11,0,0,1,1.88.78h7A1.9,1.9,0,0,0,8.49,1.92Zm3.06,4.53H9.27V1.92a1.14,1.14,0,0,1,2.28,0Z"/><path class="cls-1" d="M5.82,5.24a2,2,0,0,0,.37-2.31l.56-.56a.39.39,0,0,0,0-.55.38.38,0,0,0-.55,0l-.5.49a2,2,0,1,0,.12,2.93ZM3.55,3a1.21,1.21,0,0,1,1.6-.1l-.7.69-.21-.22a.4.4,0,0,0-.56.56l.5.49a.39.39,0,0,0,.55,0l.85-.85a1.17,1.17,0,0,1-.32,1.14A1.21,1.21,0,1,1,3.55,3Z"/><path class="cls-1" d="M1.57,7.76A.39.39,0,1,0,2,7.37.38.38,0,0,0,1.57,7.76Z"/></g></g></svg>