<svg xmlns="http://www.w3.org/2000/svg" viewBox="0 0 15.93 11.18"><defs><style>.cls-1{fill:#111D5E;}</style></defs><g id="Calque_2" data-name="Calque 2"><g id="objects"><path class="cls-1" d="M14.79,0H1.14L0,1.07H0v9l1.14,1.07H14.79l1.14-1.07v-9ZM5.61.93a3.82,3.82,0,0,1-.12.84l-.08.34.3.18a1.87,1.87,0,0,1,.7.75,2.15,2.15,0,0,1-1.1.35,3.74,3.74,0,0,0-1.09-2,5.08,5.08,0,0,0-.5-.44ZM.93,1.48v0A1.36,1.36,0,0,1,2,1.2,2.85,2.85,0,0,1,3.56,2a2.85,2.85,0,0,1,.83,1.52,1.36,1.36,0,0,1-.31,1.18,4.24,4.24,0,0,1-3.15.86ZM15,9.7l-.58.55H1.51L.93,9.7V8.86H15Zm0-1.78H.93V6.54a4.91,4.91,0,0,0,.55,0A5.16,5.16,0,0,0,4.74,5.39,2,2,0,0,0,5.3,4.33a3,3,0,0,0,2-.83l.2-.19L7.42,3a2.94,2.94,0,0,0-1-1.37A7.11,7.11,0,0,0,6.55.93h7.87l.58.55Z"/><rect class="cls-1" x="8.63" y="5.93" width="5.31" height="0.93"/><rect class="cls-1" x="10.62" y="3.94" width="3.32" height="0.93"/><rect class="cls-1" x="6.64" y="5.93" width="0.93" height="0.93"/></g></g></svg>