<svg height="512" viewBox="0 0 128 128" width="512" xmlns="http://www.w3.org/2000/svg"><g>
<path d="m113.625 24.8h-99.25a9.83 9.83 0 0 0 -9.818 9.82v58.763a9.83 9.83 0 0 0 9.818 9.82h99.25a9.83 9.83 0 0 0 9.818-9.82v-58.766a9.83 9.83 0 0 0 -9.818-9.817zm6.318 9.82v7.716h-18.818v-14.036h12.5a6.326 6.326 0 0 1 6.318 6.317zm-35.824-6.32h13.506v25.272l-5.516-5.515a1.75 1.75 0 0 0 -2.474 0l-5.516 5.515zm-69.744 0h66.244v14.033h-72.562v-7.716a6.326 6.326 0 0 1 6.318-6.317zm99.25 71.4h-99.25a6.326 6.326 0 0 1 -6.318-6.32v-47.547h72.562v11.967a1.75 1.75 0 0 0 2.987 1.238l7.266-7.265 7.266 7.265a1.75 1.75 0 0 0 2.987-1.238v-11.967h18.818v47.55a6.326 6.326 0 0 1 -6.318 6.317z" fill="#111D5E"/>
<path d="m49.962 56.047h-29.941a1.75 1.75 0 0 0 -1.75 1.75v29.941a1.749 1.749 0 0 0 1.75 1.75h29.941a1.749 1.749 0 0 0 1.75-1.75v-29.938a1.75 1.75 0 0 0 -1.75-1.753zm-18.476 13.786a3.5 3.5 0 1 1 3.5 3.5 3.509 3.509 0 0 1 -3.5-3.5zm3.5 7a5.963 5.963 0 0 1 5.956 5.956v3.194h-11.907v-3.189a5.963 5.963 0 0 1 5.956-5.956zm13.221 9.15h-3.76v-3.189a9.448 9.448 0 0 0 -4.487-8.03 7.005 7.005 0 1 0 -9.938 0 9.45 9.45 0 0 0 -4.487 8.03v3.194h-3.764v-26.441h26.441z" fill="#111D5E"/>
<path d="m107.979 85.988h-42.374a1.75 1.75 0 0 0 0 3.5h42.374a1.75 1.75 0 0 0 0-3.5z"/><path d="m107.979 75.973h-42.374a1.75 1.75 0 0 0 0 3.5h42.374a1.75 1.75 0 0 0 0-3.5z" fill="#111D5E"/>
<path d="m107.979 65.869h-42.374a1.75 1.75 0 0 0 0 3.5h42.374a1.75 1.75 0 1 0 0-3.5z" fill="#111D5E"/></g></svg>