<svg xmlns="http://www.w3.org/2000/svg" viewBox="0 0 14.79 13.64"><defs><style>.cls-1{fill:#111D5E;}</style></defs><g id="Calque_2" data-name="Calque 2"><g id="objects"><path class="cls-1" d="M14.51,0h-6A1.43,1.43,0,0,0,7.4.58,1.45,1.45,0,0,0,6.25,0h-6A.29.29,0,0,0,0,.29V13.35a.29.29,0,0,0,.29.29H9.63a.29.29,0,0,0,0-.58H7.73a1,1,0,0,1,.21-.32.83.83,0,0,1,.61-.26h5.67v.58H12a.29.29,0,0,0,0,.58h2.56a.28.28,0,0,0,.28-.29V.29A.28.28,0,0,0,14.51,0ZM.58.58H6.25a.87.87,0,0,1,.86.86V12.19a1.48,1.48,0,0,0-.86-.29H.58Zm0,11.9H6.25a.85.85,0,0,1,.61.26.83.83,0,0,1,.2.32H.58Zm7.11-.29V1.44A.86.86,0,0,1,8.55.58h5.67V11.9H8.55A1.44,1.44,0,0,0,7.69,12.19Z"/><path class="cls-1" d="M6,4.74H1.7A.29.29,0,0,0,1.42,5v5.55a.29.29,0,0,0,.28.29H6a.29.29,0,0,0,.29-.29V5A.29.29,0,0,0,6,4.74Zm-.28,5.55H2v-5H5.67Z"/><path class="cls-1" d="M13,6.82H8.76a.29.29,0,0,0,0,.58H13a.29.29,0,0,0,0-.58Z"/><path class="cls-1" d="M13,8.55H8.76a.29.29,0,0,0,0,.58H13a.29.29,0,0,0,0-.58Z"/><path class="cls-1" d="M13,10.29H8.76a.29.29,0,0,0,0,.58H13a.29.29,0,0,0,0-.58Z"/><path class="cls-1" d="M3.14,9.12a.29.29,0,0,0,.37-.18l0-.07h.81l0,.07a.28.28,0,0,0,.27.19h.09a.29.29,0,0,0,.19-.37l-.7-2.08a.29.29,0,0,0-.28-.2.29.29,0,0,0-.27.2L3,8.75A.29.29,0,0,0,3.14,9.12Zm.79-1.45.21.63H3.72Z"/><path class="cls-1" d="M6,3.36H2.86a.29.29,0,1,0,0,.57H6a.29.29,0,1,0,0-.57Z"/><path class="cls-1" d="M1.7,3.93a.3.3,0,0,0,.21-.08A.3.3,0,0,0,2,3.64a.3.3,0,0,0-.08-.2.3.3,0,0,0-.21-.08.27.27,0,0,0-.28.28.3.3,0,0,0,.08.21A.3.3,0,0,0,1.7,3.93Z"/><path class="cls-1" d="M1.77,2.09H6a.29.29,0,0,0,0-.58H1.77a.29.29,0,1,0,0,.58Z"/><path class="cls-1" d="M8.76,5.78H13a.29.29,0,0,0,.28-.29V1.8A.29.29,0,0,0,13,1.51H8.76a.29.29,0,0,0-.29.29V5.49A.29.29,0,0,0,8.76,5.78Zm2.61-.57H9.45l1-1Zm.82,0-1-1,.74-.75.77.76v1Zm.47-3.12V3.37l-.56-.56a.3.3,0,0,0-.41,0l-.95.95-.13-.13a.28.28,0,0,0-.4,0L9,4.79V2.09Z"/><path class="cls-1" d="M10.85,13.06a.31.31,0,1,0,.2.09A.25.25,0,0,0,10.85,13.06Z"/></g></g></svg>