<svg xmlns="http://www.w3.org/2000/svg" viewBox="0 0 13.75 17.15"><defs><style>.cls-1{fill:#111D5E;}</style></defs><g id="Calque_2" data-name="Calque 2"><g id="objects"><path class="cls-1" d="M13.37,6.94l-.92-1a1.51,1.51,0,0,0,.18-1A1.47,1.47,0,0,0,12,4L10.68,3a1.39,1.39,0,0,0-.12-.63,1.47,1.47,0,0,0-.8-.79L6.8.43a1.44,1.44,0,0,0-1.1,0,1.48,1.48,0,0,0-1-.44H1.47A1.47,1.47,0,0,0,0,1.47V14.08a3.05,3.05,0,0,0,5.07,2.31l0,0,5.74-5.15a.25.25,0,0,0,0-.36.25.25,0,0,0-.35,0l-.24.21-.76-.84,1.2-1.75,1.1,1.22-.5.44a.25.25,0,0,0,0,.36.27.27,0,0,0,.19.08.23.23,0,0,0,.16-.06L13.27,9a1.49,1.49,0,0,0,.48-1,1.44,1.44,0,0,0-.38-1.06ZM12.13,5a1,1,0,0,1-.15.72l-.69,1L9.74,5.63l.82-2.07,1.17.81a1,1,0,0,1,.4.63ZM9.74,9l-1-.72.85-2.12,1.46,1ZM8.19,11.2l-.53-.36.85-2.13.94.66Zm.38-4L7.84,6.9a.25.25,0,1,0-.18.46l.73.3L7.52,9.82l-1.4-.55V6.75L6.66,7h.09a.25.25,0,0,0,.09-.48l-.72-.29V3.7L9.44,5ZM5.62,5.62H2.77a.25.25,0,0,0,0,.5H5.62V8.46H.5V6.12H1.69a.25.25,0,1,0,0-.5H.5V3.28H5.62V5.62ZM.5,9H5.62v2.33H.5Zm5.62.85,1.22.48-1.22,3Zm1.57,3,.28.31-1.3,1.17Zm-1.09.69.87-2.17.43.29ZM6.61.9l3,1.18a1,1,0,0,1,.53.52,1,1,0,0,1,.07.51h0a1,1,0,0,1-.06.23L9.62,4.55l-3.5-1.4V1.47A1.35,1.35,0,0,0,6,.87a.94.94,0,0,1,.62,0ZM1.47.5H4.65a1,1,0,0,1,1,1V2.78H.5V1.47A1,1,0,0,1,1.47.5ZM.5,14.08V11.8H5.62v2.28a2.56,2.56,0,0,1-5.12,0Zm9.38-2.69L8.35,12.77,8,12.37l1.2-1.74ZM13.25,8a1,1,0,0,1-.32.67l-.77.7L11,8l1.18-1.7.84.94a1,1,0,0,1,.25.69Z"/><path class="cls-1" d="M3,12.89a1.21,1.21,0,1,0,1.21,1.2A1.2,1.2,0,0,0,3,12.89ZM3,14.8a.71.71,0,1,1,.71-.71A.71.71,0,0,1,3,14.8Z"/></g></g></svg>