<svg xmlns="http://www.w3.org/2000/svg" viewBox="0 0 16.42 17.05"><defs><style>.cls-1{fill:#111D5E;}.cls-2{fill:#111D5E;}</style></defs><g id="Calque_2" data-name="Calque 2"><g id="objects"><path class="cls-1" d="M11.61,11.08V9.37H8.87a1.82,1.82,0,0,1-1-.3H7V1.84A1.85,1.85,0,0,1,8.87,0h5.7a1.85,1.85,0,0,1,1.85,1.84V7.53a1.84,1.84,0,0,1-1.85,1.84h-.73ZM7.52,8.57H8l.07,0a1.3,1.3,0,0,0,.79.25h3.24v1.2l1.56-1.2h.9a1.34,1.34,0,0,0,1.35-1.34V1.84A1.34,1.34,0,0,0,14.57.5H8.87A1.34,1.34,0,0,0,7.52,1.84Z"/><path class="cls-1" d="M14.3,4.51a.38.38,0,0,0-.39-.39H12.33l.19-.46a1.66,1.66,0,0,0-.09-1.47.26.26,0,0,0-.48.13,1.71,1.71,0,0,1-.42,1.12l-1,1.14h-.06V4.29a.12.12,0,0,0-.13-.12H9.26a.12.12,0,0,0-.12.12V7a.12.12,0,0,0,.12.13h1.07A.13.13,0,0,0,10.46,7V6.79h0l.16.13a1.49,1.49,0,0,0,.93.33h2.33a.4.4,0,0,0,.39-.41C14.29,6.63,14.3,4.72,14.3,4.51Z"/><path class="cls-1" d="M3.73,12.36V11H1.51A1.52,1.52,0,0,1,0,9.44V5A1.52,1.52,0,0,1,1.51,3.45H6A1.52,1.52,0,0,1,7.52,5v6h-2ZM1.51,4a1,1,0,0,0-1,1V9.44a1,1,0,0,0,1,1H4.23v.89l1.16-.89H7V5A1,1,0,0,0,6,4Z"/><path class="cls-2" d="M6.07,8.54h-.9l.1-.6h.8a.25.25,0,0,0,0-.49H5.35l.13-.82A.24.24,0,0,0,5,6.55l-.15.9H4.26l.13-.82a.24.24,0,0,0-.48-.08l-.15.9h-1a.25.25,0,0,0,0,.49h.91l-.1.6H2.77a.25.25,0,0,0,0,.49H3.5l-.14.82a.25.25,0,0,0,.49.08L4,9h.59l-.14.82a.25.25,0,0,0,.49.08L5.09,9h1a.25.25,0,0,0,0-.49Zm-1.4,0H4.08l.1-.6h.59Z"/><path class="cls-1" d="M8.68,17.05V16H7.17A1.14,1.14,0,0,1,6,14.83V11.65A1.15,1.15,0,0,1,7.17,10.5h3.2a1.15,1.15,0,0,1,1.14,1.15v3.18A1.14,1.14,0,0,1,10.37,16h-.29ZM7.17,11a.65.65,0,0,0-.64.65v3.18a.64.64,0,0,0,.64.64h2V16l.73-.56h.46a.64.64,0,0,0,.64-.64V11.65a.65.65,0,0,0-.64-.65Z"/><path class="cls-2" d="M8.77,14.32c.77-.41,1.17-.75,1.17-1.29a.63.63,0,0,0-1.17-.37A.62.62,0,0,0,7.6,13c0,.54.4.88,1.17,1.29Z"/></g></g></svg>