<svg xmlns="http://www.w3.org/2000/svg" viewBox="0 0 11.89 16.14"><defs><style>.cls-1{fill:#111D5E;}</style></defs><g id="Calque_2" data-name="Calque 2"><g id="objects"><path class="cls-1" d="M11.65,0h-10A1.66,1.66,0,0,0,0,1.66V14.49a1.65,1.65,0,0,0,1.66,1.65h10a.23.23,0,0,0,.24-.23V15a.24.24,0,0,0-.07-.16,1.1,1.1,0,0,1,0-1.56.28.28,0,0,0,.07-.17V.24A.24.24,0,0,0,11.65,0ZM.47,1.66A1.18,1.18,0,0,1,1.42.5V11.9a1.68,1.68,0,0,0-.95.49Zm1.19,14A1.18,1.18,0,0,1,.47,14.49v-1a1.18,1.18,0,0,1,1.19-1.18.23.23,0,0,0,.23-.24V.47h9.52V11.89H2.6a.24.24,0,1,0,0,.47h8.81v.47H1.66a.71.71,0,0,0-.71.71v1a.71.71,0,0,0,.71.71h9.75v.47Zm-.24-1.42H11a1.92,1.92,0,0,0,.15.48H1.66a.24.24,0,0,1-.24-.24ZM11,13.78H1.42v-.24a.23.23,0,0,1,.24-.23h9.53a1.73,1.73,0,0,0-.15.47Z"/><path class="cls-1" d="M3.55,5.68H9.76A.24.24,0,0,0,10,5.44V2.13a.24.24,0,0,0-.24-.24H3.55a.24.24,0,0,0-.24.24V5.44A.24.24,0,0,0,3.55,5.68Zm.23-3.32H9.52V5.2H3.78Z"/><path class="cls-1" d="M8.81,2.84H4.49a.23.23,0,0,0-.23.23V4.49a.23.23,0,0,0,.23.24H8.81a.24.24,0,0,0,.24-.24V3.07A.23.23,0,0,0,8.81,2.84ZM8.58,4.26H4.73V3.31H8.58Z"/></g></g></svg>