<svg xmlns="http://www.w3.org/2000/svg" viewBox="0 0 14.82 14.82"><defs><style>.cls-1{fill:#111D5E;}</style></defs><g id="Calque_2" data-name="Calque 2"><g id="objects"><path class="cls-1" d="M4.94,4.2V3.92a1.73,1.73,0,1,0-2.47,0V4.2H2v.49H5.43V4.2Zm-.41-.56a.23.23,0,0,0-.08.18V4.2H4V3.56l.67-.67-.35-.35-.57.57-.56-.57-.35.35.67.67V4.2H3V3.82a.23.23,0,0,0-.08-.18,1.24,1.24,0,1,1,1.75-.1A.47.47,0,0,0,4.53,3.64Z"/><rect class="cls-1" x="8.89" y="0.99" width="1.98" height="0.49"/><rect class="cls-1" x="9.88" y="1.98" width="0.99" height="0.49"/><path class="cls-1" d="M9.38,8.4a1,1,0,1,0,1,1A1,1,0,0,0,9.38,8.4Zm0,1.48a.5.5,0,1,1,.5-.5A.49.49,0,0,1,9.38,9.88Z"/><path class="cls-1" d="M13.58,5.93a5.67,5.67,0,0,0-.74-.73V1.73a.25.25,0,0,0-.24-.25h-.75V.25A.25.25,0,0,0,11.61,0H.25A.25.25,0,0,0,0,.25V11.61a.25.25,0,0,0,.25.24H1.48v.75a.25.25,0,0,0,.25.24H5.2a5.43,5.43,0,1,0,8.38-6.91ZM1,11.36H.49V.49H1ZM11.85,2h.5V4.83a4.91,4.91,0,0,0-.5-.28ZM1.48,11.36V.49h9.88V4.32a5.44,5.44,0,0,0-7,3.08,5.52,5.52,0,0,0,0,4Zm.5,1v-.5H4.55a4.91,4.91,0,0,0,.28.5Zm7.4,2a4.94,4.94,0,1,1,4.94-4.94A4.94,4.94,0,0,1,9.38,14.32Z"/><rect class="cls-1" x="8.15" y="11.85" width="2.47" height="0.49"/><rect class="cls-1" x="7.41" y="12.84" width="3.95" height="0.49"/><rect class="cls-1" x="9.14" y="5.68" width="0.49" height="0.49"/><rect class="cls-1" x="10.13" y="5.68" width="0.49" height="0.49"/><rect class="cls-1" x="8.15" y="5.68" width="0.49" height="0.49"/><path class="cls-1" d="M9.38,7.41a2,2,0,1,0,2,2A2,2,0,0,0,9.38,7.41Zm0,3.46a1.49,1.49,0,1,1,1.49-1.49A1.49,1.49,0,0,1,9.38,10.87Z"/></g></g></svg>