<svg xmlns="http://www.w3.org/2000/svg" fill="#CE1212" viewBox="0 0 522 522"><defs><style>.cls-1{fill:#CE1212;}</style></defs><g id="Calque_2" data-name="Calque 2"><g id="objects"><path class="cls-1" d="M287.48,261l79.46-79.45a18.74,18.74,0,0,0,0-26.49h0a18.74,18.74,0,0,0-26.49,0L261,234.52l-79.45-79.46a18.74,18.74,0,0,0-26.49,0h0a18.74,18.74,0,0,0,0,26.49L234.52,261l-79.46,79.45a18.74,18.74,0,0,0,0,26.49h0a18.74,18.74,0,0,0,26.49,0L261,287.48l79.45,79.46a18.74,18.74,0,0,0,26.49,0h0a18.74,18.74,0,0,0,0-26.49Z"/><path class="cls-1" d="M445.55,76.44A261,261,0,0,0,76.45,445.56,261,261,0,0,0,445.55,76.44ZM261,492.93c-127.89,0-231.93-104-231.93-231.93S133.11,29.07,261,29.07,492.93,133.11,492.93,261,388.89,492.93,261,492.93Z"/></g></g></svg>