<svg xmlns="http://www.w3.org/2000/svg" viewBox="0 0 13.49 16.73"><defs><style>.cls-1{fill:#111D5E;}</style></defs><g id="Calque_2" data-name="Calque 2"><g id="objects"><path class="cls-1" d="M10.25,13.08v2.2A1.35,1.35,0,0,1,8.8,16.73H1.46A1.36,1.36,0,0,1,0,15.27V1.46A1.36,1.36,0,0,1,1.46,0H8.83a1.35,1.35,0,0,1,1.42,1.42V10.2a.44.44,0,0,0,.14.34l2.79,2.79a.95.95,0,1,1-1.34,1.33L10.4,13.22Zm-2.7-1.75c0-.26,0-.5,0-.74a.44.44,0,0,0-.15-.37C6.79,9.62,6.18,9,5.57,8.39A.94.94,0,0,1,6.91,7.06l.39.39c.08.07.15.15.24.24V3.79H2.71v7.54Zm-7,2.15H9.71v-.87s0-.08,0-.1L9.13,12a1.38,1.38,0,0,1-1.44,1H2.54a1.36,1.36,0,0,1-1.46-1.46V3.6A1.36,1.36,0,0,1,2.53,2.16H7.7A1.35,1.35,0,0,1,9.17,3.63c0,1.84,0,3.69,0,5.54,0,.06,0,.14,0,.18s.31.33.46.49a.18.18,0,0,0,0-.12V1.37A.8.8,0,0,0,8.87.54H1.45a.82.82,0,0,0-.91.91v12Zm0,.56v1.24a.82.82,0,0,0,.91.91H8.87a.8.8,0,0,0,.84-.84c0-.13,0-.26,0-.39V14ZM8.59,8.76l0,0V3.57a.8.8,0,0,0-.87-.87H2.5a.81.81,0,0,0-.88.88v8a.8.8,0,0,0,.79.85H7.84a.81.81,0,0,0,.79-.7c0-.09,0-.21,0-.26s-.33-.34-.52-.54v.59c0,.29-.09.37-.38.37H2.53c-.29,0-.37-.08-.37-.37V3.64c0-.33.07-.4.4-.4H7.7c.32,0,.39.07.4.38,0,1.49,0,3,0,4.47,0,.06,0,.14,0,.17C8.27,8.44,8.44,8.6,8.59,8.76ZM8,10a.46.46,0,0,0,.07.07c1.38,1.38,2.76,2.77,4.15,4.15l.12.11a.4.4,0,0,0,.56-.55.81.81,0,0,0-.12-.14l-4-4c-.08-.08-.14-.17-.2-.24Zm-.43-.42.56-.55C7.59,8.52,7.05,8,6.5,7.43a.47.47,0,0,0-.31-.09.35.35,0,0,0-.32.26A.39.39,0,0,0,6,8L6.91,9Z"/><path class="cls-1" d="M6.61,5.26c0,.13,0,.27,0,.4a.27.27,0,1,1-.53,0c0-.28,0-.55,0-.83a.25.25,0,0,1,.27-.26.26.26,0,0,1,.26.28c0,.13,0,.26,0,.39Z"/><path class="cls-1" d="M4,5.73c.06-.07.1-.17.18-.2a.3.3,0,0,1,.26,0,6.9,6.9,0,0,1,.61.6.23.23,0,0,1,0,.34.23.23,0,0,1-.33,0c-.21-.2-.41-.4-.61-.61A.84.84,0,0,1,4,5.73Z"/><path class="cls-1" d="M3.85,7.56h.33a.27.27,0,1,1,0,.53H3.5a.25.25,0,0,1-.26-.27.26.26,0,0,1,.27-.26Z"/><path class="cls-1" d="M5.12,1.62h-1c-.21,0-.33-.11-.33-.28s.12-.26.32-.26h2c.21,0,.34.11.33.27s-.12.27-.32.27Z"/><path class="cls-1" d="M7.29,1.08a.27.27,0,0,1,.26.27.26.26,0,0,1-.27.27.27.27,0,0,1,0-.54Z"/><path class="cls-1" d="M5.12,14.3a.81.81,0,1,1,0,1.62.81.81,0,0,1,0-1.62Zm.28.8a.28.28,0,0,0-.28-.26.26.26,0,0,0-.26.28.28.28,0,0,0,.28.26A.28.28,0,0,0,5.4,15.1Z"/><path class="cls-1" d="M2.44,15.38H1.92a.28.28,0,0,1-.3-.27.27.27,0,0,1,.31-.27h1a.27.27,0,1,1,0,.54Z"/><path class="cls-1" d="M7.82,15.38H7.3A.27.27,0,0,1,7,15.11a.27.27,0,0,1,.28-.27h1a.27.27,0,0,1,.28.27.27.27,0,0,1-.28.27Z"/></g></g></svg>