<svg id="Capa_1" fill="#111D5E" enable-background="new 0 0 512 512" height="512" viewBox="0 0 512 512" width="512" xmlns="http://www.w3.org/2000/svg"><g><path d="m239.145 365.479h-134.213c-4.143 0-7.5 3.357-7.5 7.5s3.357 7.5 7.5 7.5h134.213c4.143 0 7.5-3.357 7.5-7.5s-3.357-7.5-7.5-7.5z"/><path d="m239.145 407.137h-134.213c-4.143 0-7.5 3.357-7.5 7.5s3.357 7.5 7.5 7.5h134.213c4.143 0 7.5-3.357 7.5-7.5s-3.357-7.5-7.5-7.5z"/><path d="m239.145 448.796h-134.213c-4.143 0-7.5 3.357-7.5 7.5s3.357 7.5 7.5 7.5h134.213c4.143 0 7.5-3.357 7.5-7.5s-3.357-7.5-7.5-7.5z"/><path d="m442.787 50.901c0-8.804-7.162-15.966-15.965-15.966h-58.816c-8.804 0-15.966 7.162-15.966 15.966v58.816c0 8.803 7.162 15.965 15.966 15.965h58.816c8.803 0 15.965-7.162 15.965-15.965zm-15 58.817c0 .532-.433.965-.965.965h-58.816c-.532 0-.966-.433-.966-.965v-58.817c0-.532.434-.966.966-.966h58.816c.532 0 .965.434.965.966z"/><path d="m435.287 164.292h-81.884c-4.143 0-7.5 3.357-7.5 7.5s3.357 7.5 7.5 7.5h81.884c4.143 0 7.5-3.357 7.5-7.5s-3.358-7.5-7.5-7.5z"/><path d="m435.287 208.33h-81.884c-4.143 0-7.5 3.357-7.5 7.5s3.357 7.5 7.5 7.5h81.884c4.143 0 7.5-3.357 7.5-7.5s-3.358-7.5-7.5-7.5z"/><path d="m435.287 252.367h-81.884c-4.143 0-7.5 3.357-7.5 7.5s3.357 7.5 7.5 7.5h81.884c4.143 0 7.5-3.357 7.5-7.5s-3.358-7.5-7.5-7.5z"/><path d="m435.287 296.404h-81.884c-4.143 0-7.5 3.357-7.5 7.5s3.357 7.5 7.5 7.5h81.884c4.143 0 7.5-3.357 7.5-7.5s-3.358-7.5-7.5-7.5z"/><path d="m93.04 205.916h39.037c4.143 0 7.5-3.357 7.5-7.5s-3.357-7.5-7.5-7.5h-39.037c-8.999 0-16.32 7.321-16.32 16.32v108.611c0 8.999 7.321 16.32 16.32 16.32h157.998c8.999 0 16.32-7.321 16.32-16.32v-108.611c0-8.999-7.321-16.32-16.32-16.32h-88.974c-4.143 0-7.5 3.357-7.5 7.5s3.357 7.5 7.5 7.5h88.974c.728 0 1.32.593 1.32 1.32v108.611c0 .728-.593 1.32-1.32 1.32h-157.998c-.728 0-1.32-.593-1.32-1.32v-108.611c-.001-.727.592-1.32 1.32-1.32z"/><path d="m479.416 263.061c4.143 0 7.5-3.357 7.5-7.5v-243.286c0-6.768-5.507-12.275-12.276-12.275h-274.134c-4.155 0-7.5 3.402-7.5 7.5v129.836h-155.646c-6.769 0-12.275 5.507-12.275 12.275v350.113c0 6.769 5.507 12.275 12.275 12.275h32.31c4.143 0 7.5-3.357 7.5-7.5s-3.357-7.5-7.5-7.5h-29.586v-344.663h263.908v344.664h-204.336c-4.143 0-7.5 3.357-7.5 7.5s3.357 7.5 7.5 7.5h207.062c6.769 0 12.275-5.507 12.275-12.275v-125.062h155.647c6.769 0 12.275-5.507 12.275-12.275v-76.84c0-4.143-3.357-7.5-7.5-7.5s-7.5 3.357-7.5 7.5v74.115h-152.922v-214.827c0-2.506-1.246-3.975-1.718-4.777l-101.064-125.059h255.705v240.561c0 4.142 3.357 7.5 7.5 7.5zm-271.409-125.725v-108.623l87.781 108.623z"/></g></svg>