<svg xmlns="http://www.w3.org/2000/svg" viewBox="0 0 10.26 15.58"><defs><style>.cls-1{fill:#111D5E;}</style></defs><g id="Calque_2" data-name="Calque 2"><g id="objects"><path class="cls-1" d="M8.35,5.7H3.08L3,5a.31.31,0,0,0-.3-.27H1.55a.31.31,0,1,0,0,.61h.87L3,10a.28.28,0,0,0,.13.21,1.05,1.05,0,0,0-.1.44,1,1,0,0,0,2,0A1,1,0,0,0,5,10.24h.93a1,1,0,1,0,1.9.38,1,1,0,0,0-.17-.55.28.28,0,0,0,0-.13.31.31,0,0,0-.31-.31H3.59l-.08-.57h4a.31.31,0,0,0,.29-.22l.82-2.75a.3.3,0,0,0-.29-.39ZM4,11a.38.38,0,0,1-.38-.38.38.38,0,1,1,.76,0A.38.38,0,0,1,4,11Zm2.75,0a.39.39,0,1,1,.38-.39A.38.38,0,0,1,6.79,11ZM7.3,8.45H3.43L3.16,6.31H7.94Z"/><path class="cls-1" d="M8.79,0H1.47A1.47,1.47,0,0,0,0,1.46V14.12a1.47,1.47,0,0,0,1.47,1.46H8.8a1.47,1.47,0,0,0,1.46-1.46V1.46A1.47,1.47,0,0,0,8.79,0ZM.61,1.46A.85.85,0,0,1,1.47.61H8.79a.85.85,0,0,1,.86.85V12.54h-9Zm9,12.66A.85.85,0,0,1,8.8,15H1.47a.85.85,0,0,1-.86-.85v-1h9Z"/><path class="cls-1" d="M4.93,14.37h.4a.31.31,0,0,0,.31-.31.3.3,0,0,0-.31-.3h-.4a.3.3,0,0,0-.31.3.31.31,0,0,0,.31.31Z"/><path class="cls-1" d="M3.69,1.81H6.58a.3.3,0,0,0,.3-.3.31.31,0,0,0-.3-.31H3.69a.31.31,0,0,0-.31.31.3.3,0,0,0,.31.3Z"/></g></g></svg>