<svg xmlns="http://www.w3.org/2000/svg" viewBox="0 0 15.75 14.46"><defs><style>.cls-1{fill:#111D5E;}</style></defs><g id="Calque_2" data-name="Calque 2"><g id="objects"><path class="cls-1" d="M15.63.94A1.33,1.33,0,0,0,15.3.45,1.49,1.49,0,0,0,14.22,0h-5A.31.31,0,0,0,9,.31a.31.31,0,0,0,.31.31h5a.92.92,0,0,1,.92.92V8.62H3.38v-8H6.49A.31.31,0,0,0,6.8.31.31.31,0,0,0,6.49,0H1.54a1.53,1.53,0,0,0-.6.12A1.63,1.63,0,0,0,.45.45,1.63,1.63,0,0,0,.12.94a1.53,1.53,0,0,0-.12.6V9.85a1.54,1.54,0,0,0,1.54,1.54H6.19v1.07H5.72A1.55,1.55,0,0,0,4.18,14v.15a.31.31,0,0,0,.31.31h6.77a.31.31,0,0,0,.31-.31V14A1.54,1.54,0,0,0,10,12.46H9.57V11.39h4.65a1.54,1.54,0,0,0,1.53-1.54V1.54A1.53,1.53,0,0,0,15.63.94ZM.62,8.62V3.26H2.77V8.62Zm.92-8H2.77v2H.62V1.54A.92.92,0,0,1,1.54.62ZM9.26,13.08H10a.92.92,0,0,1,.91.77H4.81a.93.93,0,0,1,.91-.77h.77a.31.31,0,0,0,.31-.31V11.39H9v1.38A.31.31,0,0,0,9.26,13.08Zm5.88-3.23a.92.92,0,0,1-.92.92H1.54a.92.92,0,0,1-.92-.92V9.23H15.14Z"/><path class="cls-1" d="M7.87.62A.31.31,0,0,0,8.18.31.31.31,0,0,0,7.87,0a.3.3,0,0,0-.3.31A.3.3,0,0,0,7.87.62Z"/><path class="cls-1" d="M11,6l.31-1.68L11.85,6v0a.37.37,0,0,0,.35.25h0a.38.38,0,0,0,.35-.26h0L13,4.35,13.36,6a.31.31,0,0,0,.36.24A.29.29,0,0,0,14,5.92l-.51-2.7a.37.37,0,0,0-.72,0L12.2,5.06l-.56-1.88a.38.38,0,0,0-.38-.26.41.41,0,0,0-.34.3l-.48,2.7A.31.31,0,1,0,11,6Z"/><path class="cls-1" d="M4.43,4.62A1.66,1.66,0,0,0,6.06,6.31,1.39,1.39,0,0,0,7,6l.13-.15a.3.3,0,0,0,0-.43.31.31,0,0,0-.44,0l-.07.08a.73.73,0,0,1-.52.19,1,1,0,0,1-1-1.07,1,1,0,0,1,1-1.08.94.94,0,0,1,.56.18.31.31,0,0,0,.43-.07A.3.3,0,0,0,7,3.22a1.53,1.53,0,0,0-.92-.3,1.67,1.67,0,0,0-1.63,1.7Z"/><path class="cls-1" d="M9.82,3.94a1,1,0,0,0-1-1H8.12a.3.3,0,0,0-.3.31V6a.3.3,0,0,0,.3.31A.31.31,0,0,0,8.43,6V5.36l.86.86a.31.31,0,0,0,.44,0,.31.31,0,0,0,0-.44l-.87-.86a1,1,0,0,0,1-1Zm-1,.37H8.43V3.54h.36a.42.42,0,0,1,.41.4A.4.4,0,0,1,8.79,4.31Z"/><circle class="cls-1" cx="1.69" cy="7.26" r="0.31"/><circle class="cls-1" cx="1.69" cy="5.88" r="0.31"/><circle class="cls-1" cx="1.69" cy="4.49" r="0.31"/></g></g></svg>