<svg xmlns="http://www.w3.org/2000/svg" viewBox="0 0 16.39 16.39"><defs><style>.cls-1{fill:#111D5E;}</style></defs><g id="Calque_2" data-name="Calque 2"><g id="objects"><path class="cls-1" d="M7.73,2.55,6.27,5.91l6.09,2.83,1.5-3.36Zm4.15,4.9-4.36-2,.7-1.6,4.38,2Z"/><path class="cls-1" d="M16.39,4.45,6.83,0,5.5,2.91H0V16.39H10.94ZM1,15.43V3.87H5.05l-3.77,8.2,7.19,3.36ZM2.55,11.6,7.3,1.28l7.82,3.63L10.4,15.27Z"/><path class="cls-1" d="M3.83,11.14l.4-.87,6.1,2.83-.4.87Z"/><path class="cls-1" d="M4.64,9.39,5,8.52l6.1,2.83-.4.87Z"/><path class="cls-1" d="M5.45,7.65l.4-.87L12,9.61l-.4.87Z"/></g></g></svg>