<svg xmlns="http://www.w3.org/2000/svg" viewBox="0 0 14.53 14.53"><defs><style>.cls-1{fill:#111D5E;}</style></defs><g id="Calque_2" data-name="Calque 2"><g id="objects"><path class="cls-1" d="M14.31,2.6a.22.22,0,0,0,.22-.22V.21A.22.22,0,0,0,14.31,0H.21A.22.22,0,0,0,0,.21V2.38a.22.22,0,0,0,.21.22H1.56V7.05H.21A.21.21,0,0,0,0,7.26V8a.21.21,0,0,0,.21.21H.8v6.1a.21.21,0,0,0,.21.22h12.5a.22.22,0,0,0,.22-.22V8.21h.58A.21.21,0,0,0,14.53,8V7.26a.21.21,0,0,0-.22-.21H13V2.6ZM.43.43H14.1V2.17H.43ZM7.11,7.05V5.79a.21.21,0,0,0-.21-.21H6.16A.21.21,0,0,0,6,5.79V7.05H5.6V5.79a.21.21,0,0,0-.21-.21H3.92a.21.21,0,0,0-.22.21V7.05h-1V2.6H11.8V7.05Zm-.43,0H6.37V6h.31ZM5.17,6.31h-1V6h1Zm-1,.43h1v.31h-1ZM2,2.6H2.3V7.05H2ZM13.3,11.49H1.23v-1H13.3ZM1.23,14.1V11.92H13.3V14.1ZM13.3,10H1.23V8.21H13.3Zm.8-2.24H.43v-.3H14.1Zm-1.57-.73h-.3V2.6h.3Z"/><path class="cls-1" d="M2.35,1.16A.21.21,0,0,0,2.56,1,.21.21,0,0,0,2.35.74H1.49A.21.21,0,0,0,1.28,1a.21.21,0,0,0,.21.21Z"/></g></g></svg>