<svg xmlns="http://www.w3.org/2000/svg" viewBox="0 0 14.44 14.44"><defs><style>.cls-1{fill:#111D5E;}</style></defs><g id="Calque_2" data-name="Calque 2"><g id="objects"><path class="cls-1" d="M.25,14.26a.23.23,0,0,0,.23.18H10.59a.25.25,0,0,0,.24-.18l.24-1a.24.24,0,0,0-.18-.29h-.31A5,5,0,0,0,6.49,8.28s0-.06,0-.09a1,1,0,1,0-1.93,0s0,.06,0,.09A5.07,5.07,0,0,0,.49,13H.24a.24.24,0,0,0-.24.24.13.13,0,0,0,0,.06ZM10.4,14H.67l-.12-.48h10ZM5.06,8.19a.48.48,0,0,1,.48-.49A.49.49,0,0,1,6,8.19v0a3.85,3.85,0,0,0-.48,0,3.85,3.85,0,0,0-.48,0Zm.48.48A4.57,4.57,0,0,1,10.1,13H1A4.56,4.56,0,0,1,5.54,8.67Z"/><path class="cls-1" d="M2,11.19l.42.25a3.62,3.62,0,0,1,4-1.7l.12-.46A4.1,4.1,0,0,0,2,11.19Z"/><path class="cls-1" d="M1.57,12.22l.47.12a3,3,0,0,1,.15-.45l-.45-.18A3.81,3.81,0,0,0,1.57,12.22Z"/><path class="cls-1" d="M14.2,1.2h-.72v-1A.24.24,0,0,0,13.24,0h0L5.5,1.21h0a.23.23,0,0,0-.2.23v5.3h.48V1.69H14V14H11.31v.48H14.2a.23.23,0,0,0,.24-.24V1.44A.24.24,0,0,0,14.2,1.2ZM13,1.2H8.64L13,.52Z"/><path class="cls-1" d="M7.66,4.28,7,3.6l-.34.34.68.68a1.2,1.2,0,0,0,1.51.15l.7.7L7.32,7.68,7.66,8,9.87,5.81,12.08,8l.34-.34L10.21,5.47l.36-.36A1.2,1.2,0,0,0,12.08,5l.34-.34a1.2,1.2,0,1,0-1.67-1.73l0,0-.34.34a1.2,1.2,0,0,0-.15,1.51l-.36.36-.7-.7A1.2,1.2,0,0,0,9,2.92l-.68-.68L8,2.58l.68.68a.73.73,0,0,1,.14.82L7.66,2.92l-.34.34L8.48,4.42a.73.73,0,0,1-.82-.14Zm3.06-.68.34-.34a.72.72,0,0,1,1,1l-.34.34a.72.72,0,0,1-1,0,.72.72,0,0,1,0-1Z"/><path class="cls-1" d="M12.76,8.67h.48v.48h-.48Z"/><path class="cls-1" d="M12.76,9.63h.48v.48h-.48Z"/><path class="cls-1" d="M12.76,10.59h.48v.48h-.48Z"/><path class="cls-1" d="M9.15,8.67h3.13v.48H9.15Z"/><path class="cls-1" d="M10.11,9.63h2.17v.48H10.11Z"/><path class="cls-1" d="M10.83,10.59h1.45v.48H10.83Z"/><path class="cls-1" d="M4.33,1.93h.48V6.26H4.33Z"/></g></g></svg>