<svg xmlns="http://www.w3.org/2000/svg" viewBox="0 0 12.9 15.14"><defs><style>.cls-1{fill:#111D5E;}</style></defs><g id="Calque_2" data-name="Calque 2"><g id="objects"><path class="cls-1" d="M12.89,3.9v0a.17.17,0,0,0,0-.1h0a.23.23,0,0,0-.07-.07h0l0,0L6.59,0a.28.28,0,0,0-.28,0L.14,3.68A.29.29,0,0,0,0,3.93v7.29a.28.28,0,0,0,.14.24L6.31,15.1h0a.23.23,0,0,0,.2,0h0l6.17-3.64a.28.28,0,0,0,.14-.24V3.93A0,0,0,0,0,12.89,3.9ZM4.44,1.79,6.87,3.23a.28.28,0,0,0,.38-.09.29.29,0,0,0-.09-.39h0L5,1.47,6.45.61l5.62,3.32-1.46.86L8,3.24a.28.28,0,0,0-.38.1.29.29,0,0,0,.1.39l2.35,1.38L8.6,6,3,2.66ZM10.33,5.6V7.48l-1.45.85V6.46Zm2,5.46L6.73,14.37v-.91a.28.28,0,0,0-.28-.28.27.27,0,0,0-.28.28v.91L.56,11.06v-7L2.43,3,8.05,6.3l-1.6.94-5.08-3a.29.29,0,0,0-.38.1.28.28,0,0,0,.1.39l5.08,3v4.61a.28.28,0,0,0,.28.28.29.29,0,0,0,.28-.28V7.73l1.59-.94v2a.27.27,0,0,0,.28.28.32.32,0,0,0,.14,0l2-1.19a.27.27,0,0,0,.14-.24V5.27l1.45-.85Z"/><path class="cls-1" d="M1.4,9.25a.29.29,0,0,0-.28.28v1.12a.29.29,0,0,0,.28.29.28.28,0,0,0,.28-.29V9.53A.28.28,0,0,0,1.4,9.25Z"/><path class="cls-1" d="M2.52,9.81a.29.29,0,0,0-.28.28v1.13a.29.29,0,0,0,.28.28.28.28,0,0,0,.28-.28V10.09A.28.28,0,0,0,2.52,9.81Z"/></g></g></svg>