<svg xmlns="http://www.w3.org/2000/svg" viewBox="0 0 11.68 15.57"><defs><style>.cls-1{fill:#111D5E;}</style></defs><g id="Calque_2" data-name="Calque 2"><g id="objects"><path class="cls-1" d="M11,6.06h-.08V1a1,1,0,0,0-1-1H1A1,1,0,0,0,0,1V14.55a1,1,0,0,0,1,1H9.91a1,1,0,0,0,1-1V9.32H11a.67.67,0,0,0,.67-.67V6.72A.67.67,0,0,0,11,6.06ZM9.91.61a.41.41,0,0,1,.41.41v5H9.38V1s0,0,0-.06h0V.61h.62Zm.42,13.94a.42.42,0,0,1-.42.41H9.29a1.16,1.16,0,0,0,.09-.41v-.84a.3.3,0,0,0-.31-.3.29.29,0,0,0-.3.3v.84a.42.42,0,0,1-.41.41H1a.41.41,0,0,1-.41-.41V1A.41.41,0,0,1,1,.61H8.36A.41.41,0,0,1,8.77,1v5H8.46a1.6,1.6,0,0,0-1.15.48,1.59,1.59,0,0,0-.48,1.15A1.63,1.63,0,0,0,8.46,9.32h.31v2a.29.29,0,0,0,.3.3.3.3,0,0,0,.31-.3v-2h.94v5.23Zm.74-5.9a.06.06,0,0,1-.06.06H8.46a1,1,0,0,1-1-1A1,1,0,0,1,7.74,7a1,1,0,0,1,.67-.3H11s.06,0,.06,0Z"/><path class="cls-1" d="M8.55,6.85a.84.84,0,0,0,0,1.68.84.84,0,1,0,0-1.68Zm0,1.07a.23.23,0,1,1,0-.46.23.23,0,0,1,0,.46Z"/><path class="cls-1" d="M7.18,4.46V3a.5.5,0,0,0-.5-.5H2.83a.5.5,0,0,0-.51.5V4.46a.5.5,0,0,0,.51.5H6.68A.5.5,0,0,0,7.18,4.46Zm-.61-.11H2.93V3.06H6.57Z"/><path class="cls-1" d="M3.52,4H5.85a.31.31,0,0,0,0-.61H3.52a.31.31,0,0,0,0,.61Z"/><path class="cls-1" d="M9.07,12.19a.3.3,0,0,0-.3.3h0a.3.3,0,0,0,.3.31.31.31,0,1,0,0-.61Z"/></g></g></svg>