<svg xmlns="http://www.w3.org/2000/svg" viewBox="0 0 13.88 19.59"><defs><style>.cls-1{fill:#111D5E;}</style></defs><g id="Calque_2" data-name="Calque 2"><g id="objects"><path class="cls-1" d="M8,7.35,6.09,10.62,5.1,9,2.65,13.06h8.57Zm-2.8,4.89H4.09l1-1.67.52.86Zm.94,0L8,9l1.86,3.25Z"/><path class="cls-1" d="M13.06,3.26h-.82V2.45h-.81V0h-.82V2.45H9.8v.81H4.08V2.45H3.26V0H2.45V2.45H1.63v.81H0V19.59H13.88V3.26Zm-2.45,0h.82v.82h-.82Zm-8.16,0h.81v.82H2.45ZM13.06,18.77H.82V4.08h.81V4.9H4.08V4.08H9.8V4.9h2.44V4.08h.82Z"/><path class="cls-1" d="M8.57,16.32H5.31a.41.41,0,0,0-.41.41.41.41,0,0,0,.41.41H8.57A.41.41,0,0,0,9,16.73.41.41,0,0,0,8.57,16.32Z"/><path class="cls-1" d="M10.2,14.69H3.67a.42.42,0,0,0-.41.41.41.41,0,0,0,.41.41H10.2a.41.41,0,0,0,.41-.41A.41.41,0,0,0,10.2,14.69Z"/></g></g></svg>