<svg id="Capa_1" fill="#111D5E" enable-background="new 0 0 512 512" height="512" viewBox="0 0 512 512" width="512" xmlns="http://www.w3.org/2000/svg"><g><path d="m366.466 239.24c-46.332-38.681-72.068-91.322-85.5-128.67-8.518-23.688-42.021-23.723-50.554 0-13.431 37.348-39.166 89.988-85.5 128.67-15.146 12.646-17.178 35.071-4.433 49.969 35.05 40.966 45.011 90.275 45.687 93.806l14.91 120.217c.621 5.008 4.877 8.769 9.924 8.769h89.379c5.047 0 9.303-3.761 9.924-8.769l14.91-120.212c.687-3.587 10.654-52.865 45.686-93.81 12.725-14.875 10.737-37.305-4.433-49.97zm-74.923 252.76h-71.707l-12.466-100.515h96.639zm-35.854-193.818c-9.558 0-17.333-7.775-17.333-17.333s7.775-17.333 17.333-17.333 17.333 7.776 17.333 17.333-7.775 17.333-17.333 17.333zm100.012-21.975c-31.221 36.491-44.096 77.917-48.406 95.278h-41.605v-54.674c15.744-4.384 27.333-18.84 27.333-35.962 0-20.586-16.747-37.333-37.333-37.333s-37.333 16.748-37.333 37.333c0 17.122 11.589 31.578 27.333 35.962v54.674h-41.605c-4.312-17.361-17.187-58.787-48.407-95.278-5.556-6.493-4.452-16.184 2.054-21.614 49.776-41.557 77.233-97.577 91.502-137.255 2.186-6.078 10.72-6.1 12.913 0 14.27 39.678 41.728 95.699 91.502 137.255 6.498 5.426 7.615 15.112 2.052 21.614z"/><path d="m463.281 6.567c-13.458 0-24.996 8.354-29.72 20.145h-141.16v-3.231c0-12.947-10.533-23.481-23.48-23.481h-26.463c-12.947 0-23.48 10.534-23.48 23.481v3.231h-140.539c-4.724-11.791-16.262-20.145-29.72-20.145-17.65 0-32.01 14.359-32.01 32.009s14.359 32.009 32.01 32.009c14.839 0 27.349-10.151 30.958-23.873h98.953c-36.357 18.141-64.455 48.114-80.513 83.743h-5.31c-12.947 0-23.48 10.534-23.48 23.481v26.462c0 12.947 10.533 23.481 23.48 23.481h26.463c12.947 0 23.48-10.534 23.48-23.481v-26.462c0-12.591-9.962-22.896-22.418-23.454 19.607-37.346 54.776-66.659 98.85-77.497 1.497 11.515 11.361 20.44 23.277 20.44h26.463c11.915 0 21.778-8.923 23.276-20.436 42.261 10.427 78.569 38.951 98.841 77.494-12.452.562-22.41 10.866-22.41 23.454v26.462c0 12.947 10.533 23.481 23.48 23.481h26.463c12.947 0 23.48-10.534 23.48-23.481v-26.462c0-12.947-10.533-23.481-23.48-23.481h-5.315c-15.76-34.961-43.499-65.277-80.503-83.743h99.569c3.609 13.722 16.119 23.873 30.958 23.873 17.65 0 32.01-14.359 32.01-32.009s-14.359-32.01-32.01-32.01zm-340.531 147.369v26.462c0 1.919-1.562 3.481-3.48 3.481h-26.463c-1.919 0-3.48-1.562-3.48-3.481v-26.462c0-1.919 1.562-3.481 3.48-3.481h26.463c1.918 0 3.48 1.561 3.48 3.481zm299.303 0v26.462c0 1.919-1.562 3.481-3.48 3.481h-26.463c-1.919 0-3.48-1.562-3.48-3.481v-26.462c0-1.919 1.562-3.481 3.48-3.481h26.463c1.918 0 3.48 1.561 3.48 3.481zm-373.334-103.351c-6.622 0-12.01-5.387-12.01-12.009s5.388-12.009 12.01-12.009 12.009 5.387 12.009 12.009-5.387 12.009-12.009 12.009zm223.682-.642c0 1.919-1.562 3.481-3.48 3.481h-26.463c-1.919 0-3.48-1.562-3.48-3.481v-26.462c0-1.919 1.562-3.481 3.48-3.481h26.463c1.919 0 3.48 1.562 3.48 3.481zm190.88.642c-6.622 0-12.009-5.387-12.009-12.009s5.387-12.009 12.009-12.009 12.01 5.387 12.01 12.009-5.388 12.009-12.01 12.009z"/><path d="m243.176 188.904c-5.016-2.313-10.956-.124-13.27 4.891-18.128 39.292-48.653 61.115-49.126 61.449-4.521 3.16-5.63 9.386-2.475 13.914 3.156 4.53 9.388 5.645 13.922 2.486 1.432-.998 35.297-24.946 55.839-69.47 2.314-5.015.124-10.956-4.89-13.27z"/><path d="m253 157.167c-5.522 0-10 4.477-10 10s4.478 10 10 10h.025c5.522 0 9.987-4.477 9.987-10s-4.49-10-10.012-10z"/></g></svg>