<svg xmlns="http://www.w3.org/2000/svg" viewBox="0 0 16.1 15.71"><defs><style>.cls-1{fill:#111D5E;}</style></defs><g id="Calque_2" data-name="Calque 2"><g id="objects"><path class="cls-1" d="M14.93,9.5A6.46,6.46,0,0,0,6.41,1.37v0C6.26.48,6,0,5.56,0s-.7.48-.84,1.34a.21.21,0,0,1-.17.17c-.86.14-1.34.44-1.34.84s.28.55.79.72a6.49,6.49,0,0,0-.78,7.51l-3,3a.68.68,0,0,0,0,.94l1,1a.68.68,0,0,0,.94,0l1.19-1.19a.24.24,0,0,0,0-.33A.25.25,0,0,0,3,14L1.77,15.18a.19.19,0,0,1-.28,0l-1-1a.19.19,0,0,1,0-.28L6.89,7.58,8.13,8.82,3.74,13.21a.25.25,0,0,0,0,.34.27.27,0,0,0,.17.06.23.23,0,0,0,.16-.06l1-1a6.48,6.48,0,0,0,8.12-.42c.15.33.36.5.6.5.4,0,.7-.48.84-1.34a.21.21,0,0,1,.17-.17c.86-.14,1.34-.44,1.34-.84s-.42-.66-1.17-.82ZM3.68,2.35c0-.06.26-.26.95-.38a.68.68,0,0,0,.55-.55c.12-.7.32-.94.38-.95s.27.25.38,1A.69.69,0,0,0,6.49,2c.7.12.94.32,1,.38s-.25.27-1,.38a.68.68,0,0,0-.55.55c-.11.7-.32.94-.38,1s-.26-.25-.38-1a.68.68,0,0,0-.55-.55c-.53-.09-.93-.27-.95-.38Zm5.15,11a5.91,5.91,0,0,1-3.46-1.1l5.49-5.49a1.17,1.17,0,0,0,0-1.67l-.23-.24a1.21,1.21,0,0,0-.84-.34A1.2,1.2,0,0,0,9,4.85L8.6,5.2a.24.24,0,0,0,.34.34l.35-.35a.7.7,0,0,1,1,0l.24.23a.7.7,0,0,1,.2.5.74.74,0,0,1-.2.51L8.46,8.49,7.23,7.25l.93-.94A.23.23,0,1,0,7.83,6L3.57,10.24a6,6,0,0,1,1-7h0a.2.2,0,0,1,.17.16c.14.87.44,1.34.84,1.34s.7-.47.85-1.34a.19.19,0,0,1,.16-.16c.87-.15,1.34-.45,1.34-.85s-.28-.56-.82-.72a6,6,0,0,1,7.73,5.73,6.15,6.15,0,0,1-.26,1.76C14.4,8.37,14.12,8,13.75,8s-.7.47-.85,1.34a.19.19,0,0,1-.16.16c-.87.15-1.34.45-1.34.85s.47.7,1.34.84a.2.2,0,0,1,.16.17,3.59,3.59,0,0,0,.08.35,5.94,5.94,0,0,1-4.15,1.67Zm5.85-2.65a.68.68,0,0,0-.55.55c-.12.69-.32.94-.38.95s-.17-.15-.28-.51a2.66,2.66,0,0,1-.1-.44.68.68,0,0,0-.55-.55c-.7-.12-.94-.32-1-.38s.25-.27,1-.38a.68.68,0,0,0,.55-.55c.11-.7.32-.94.38-1s.26.25.38,1a.68.68,0,0,0,.55.55c.69.11.94.32,1,.38s-.26.26-1,.38Z"/></g></g></svg>