<svg xmlns="http://www.w3.org/2000/svg" viewBox="0 0 16.28 16.28"><defs><style>.cls-1{fill:#111D5E;}</style></defs><g id="Calque_2" data-name="Calque 2"><g id="objects"><path class="cls-1" d="M14.66,8.54a1.37,1.37,0,0,0,.22-.75V7.54a1.34,1.34,0,0,0-2.28-1,4.7,4.7,0,0,0-8.92,0,1.34,1.34,0,0,0-2.28,1v.25a1.37,1.37,0,0,0,.22.75,2,2,0,0,0-1.62,2v.64a.32.32,0,0,0,.32.32H2a.32.32,0,0,0,.32-.32A.32.32,0,0,0,2,10.86H.64v-.32A1.41,1.41,0,0,1,2.05,9.13h1.5a4.68,4.68,0,0,0,.63,1.49L.55,14.24a1.19,1.19,0,1,0,1.68,1.69l2-2a.31.31,0,0,0,0-.45.33.33,0,0,0-.45,0l-2,2a.54.54,0,0,1-.78,0,.56.56,0,0,1,0-.79l3.56-3.56a4.7,4.7,0,0,0,8.17-2h1.5a1.41,1.41,0,0,1,1.41,1.41v.32h-3a.31.31,0,0,0-.31.32.32.32,0,0,0,.31.32H16a.32.32,0,0,0,.32-.32v-.64A2,2,0,0,0,14.66,8.54ZM3.44,7.79A.71.71,0,0,1,2,7.79V7.54a.71.71,0,1,1,1.41,0Zm4.7,4.36a4.07,4.07,0,1,1,4.07-4.07A4.07,4.07,0,0,1,8.14,12.15Zm6.11-4.36a.71.71,0,0,1-1.41,0V7.54a.71.71,0,1,1,1.41,0Z"/><path class="cls-1" d="M8.14,4.65a3.44,3.44,0,0,0-2.36,5.93l0,0a3.44,3.44,0,0,0,4.64,0l0,0A3.43,3.43,0,0,0,8.14,4.65Zm0,6.23a2.75,2.75,0,0,1-1.73-.6,2,2,0,0,1,3.46,0A2.75,2.75,0,0,1,8.14,10.88Zm-.67-3V7.69a.67.67,0,0,1,1.34,0v.24a.67.67,0,0,1-1.34,0Zm2.87,1.88a2.59,2.59,0,0,0-1.22-1,1.31,1.31,0,0,0,.33-.86V7.69a1.31,1.31,0,0,0-2.62,0v.24a1.31,1.31,0,0,0,.33.86,2.59,2.59,0,0,0-1.22,1,2.8,2.8,0,1,1,4.4,0Z"/><path class="cls-1" d="M5.08,12.63a.31.31,0,0,0-.22-.09.32.32,0,0,0-.23.09.31.31,0,0,0-.09.22.31.31,0,0,0,.32.32.31.31,0,0,0,.22-.09.33.33,0,0,0,.1-.23A.32.32,0,0,0,5.08,12.63Z"/><path class="cls-1" d="M8.15,0a.32.32,0,0,0-.32.32V1.4a.32.32,0,1,0,.63,0V.32A.31.31,0,0,0,8.15,0Z"/><path class="cls-1" d="M8.37,2.22a.31.31,0,0,0-.22-.09.31.31,0,0,0-.32.32.31.31,0,0,0,.09.22.33.33,0,0,0,.23.1.32.32,0,0,0,.22-.1.31.31,0,0,0,.09-.22A.32.32,0,0,0,8.37,2.22Z"/><path class="cls-1" d="M10.84,1.25a.31.31,0,0,0-.45,0l-.56.56a.33.33,0,0,0,0,.45.33.33,0,0,0,.23.09.31.31,0,0,0,.22-.09l.56-.56A.31.31,0,0,0,10.84,1.25Z"/><path class="cls-1" d="M6.45,1.81l-.56-.56a.32.32,0,0,0-.45.45L6,2.26a.33.33,0,0,0,.23.09.32.32,0,0,0,.22-.54Z"/></g></g></svg>