<svg xmlns="http://www.w3.org/2000/svg" viewBox="0 0 13.9 9.78"><defs><style>.cls-1{fill:#111D5E;}</style></defs><g id="Calque_2" data-name="Calque 2"><g id="objects"><path class="cls-1" d="M12.68,0H1.22A1.22,1.22,0,0,0,0,1.22V8.55A1.23,1.23,0,0,0,1.22,9.78H12.68A1.23,1.23,0,0,0,13.9,8.55V1.22A1.22,1.22,0,0,0,12.68,0Zm-.17.81L7.82,5.48A1.2,1.2,0,0,1,7,5.84a1.18,1.18,0,0,1-.86-.36L1.39.81ZM.81,8.39v-7l3.53,3.5ZM1.39,9l3.52-3.5.6.6A2,2,0,0,0,7,6.66a2,2,0,0,0,1.44-.6l.6-.6L12.51,9Zm11.7-.57L9.57,4.89l3.52-3.5Z"/></g></g></svg>