<svg xmlns="http://www.w3.org/2000/svg" viewBox="0 0 14.01 13.54"><defs><style>.cls-1{fill:#111D5E;}</style></defs><g id="Calque_2" data-name="Calque 2"><g id="objects"><path class="cls-1" d="M13.07,0H.93A.93.93,0,0,0,0,.93V8.64a.23.23,0,0,0,.23.23H13.77A.23.23,0,0,0,14,8.64V.93A.94.94,0,0,0,13.07,0Zm.47,8.4H.47V.93A.47.47,0,0,1,.93.47H13.07a.47.47,0,0,1,.47.46Z"/><path class="cls-1" d="M13.77,8.4H.23A.23.23,0,0,0,0,8.64V9.8a.94.94,0,0,0,.93.94H13.07A.94.94,0,0,0,14,9.8V8.64A.24.24,0,0,0,13.77,8.4Zm-.23,1.4a.47.47,0,0,1-.47.47H.93A.47.47,0,0,1,.47,9.8V8.87H13.54V9.8Z"/><path class="cls-1" d="M7.7,9.34H6.3a.23.23,0,1,0,0,.46H7.7a.23.23,0,1,0,0-.46Z"/><path class="cls-1" d="M12.84.93H1.17a.24.24,0,0,0-.24.24V8.64a.23.23,0,0,0,.24.23H12.84a.23.23,0,0,0,.23-.23V1.17A.23.23,0,0,0,12.84.93ZM12.61,8.4H1.4v-7H12.61v7Z"/><path class="cls-1" d="M10,12.14H4a.7.7,0,1,0,0,1.4H10a.7.7,0,0,0,0-1.4Zm0,.93H4a.23.23,0,0,1,0-.46H10a.23.23,0,0,1,0,.46Z"/><path class="cls-1" d="M9.57,12.14c-.77,0-1.17-.55-1.17-1.63a.23.23,0,0,0-.23-.24H5.84a.24.24,0,0,0-.24.24c0,1.08-.39,1.63-1.16,1.63a.23.23,0,0,0-.24.23.24.24,0,0,0,.24.24H9.57a.23.23,0,0,0,.23-.24A.23.23,0,0,0,9.57,12.14Zm-4,0a2.2,2.2,0,0,0,.49-1.4H7.94a2.31,2.31,0,0,0,.49,1.4Z"/><path class="cls-1" d="M11.15,6.88l-.56-.57L10.9,6A.23.23,0,0,0,11,5.78a.25.25,0,0,0-.16-.17l-2.34-.7a.24.24,0,0,0-.29.29l.7,2.34a.25.25,0,0,0,.17.16.25.25,0,0,0,.22-.06L9.6,7.3l.56.57a.28.28,0,0,0,.17.07.24.24,0,0,0,.16-.07l.66-.66A.22.22,0,0,0,11.15,6.88Zm-.82.49-.51-.51a.31.31,0,0,0-.22-.09.27.27,0,0,0-.21.09L9.22,7,8.75,5.48,10.3,6l-.18.18a.25.25,0,0,0-.08.18.26.26,0,0,0,.08.19l.54.54Z"/><path class="cls-1" d="M9.8,1.87H3.27A.23.23,0,0,0,3,2.1V3.27a.23.23,0,0,0,.24.23H9.8A.23.23,0,0,0,10,3.27V2.1A.23.23,0,0,0,9.8,1.87ZM9.57,3H3.5v-.7H9.57Z"/><path class="cls-1" d="M6.07,4.44H4.2A.23.23,0,0,0,4,4.67V5.6a.23.23,0,0,0,.23.24H6.07A.23.23,0,0,0,6.3,5.6V4.67A.23.23,0,0,0,6.07,4.44Zm-.23.93H4.44V4.9h1.4Z"/><path class="cls-1" d="M9.8,1.87H3.27A.23.23,0,0,0,3,2.1V6.54a.23.23,0,0,0,.24.23H8.83A.21.21,0,0,0,9,6.68a.23.23,0,0,0,0-.21l-.3-1,1,.3a.2.2,0,0,0,.2,0,.22.22,0,0,0,.1-.18V2.1A.23.23,0,0,0,9.8,1.87ZM9.57,5.24l-1.1-.33a.24.24,0,0,0-.29.29l.33,1.1h-5v-4H9.57Z"/></g></g></svg>