<svg xmlns="http://www.w3.org/2000/svg" viewBox="0 0 14.51 14.51"><defs><style>.cls-1{fill:#111D5E;}</style></defs><g id="Calque_2" data-name="Calque 2"><g id="objects"><path class="cls-1" d="M13.78,1.93H12.33v.49h1.45a.24.24,0,0,1,.24.24v7.49a.25.25,0,0,1-.24.25H.73a.25.25,0,0,1-.25-.25V2.66a.25.25,0,0,1,.25-.24H2.18V1.93H.73A.73.73,0,0,0,0,2.66v7.49a.72.72,0,0,0,.73.73H5.8v2.18H5.32a.24.24,0,0,0-.24.24v1a.25.25,0,0,0,.24.25H9.19a.25.25,0,0,0,.24-.25v-1a.24.24,0,0,0-.24-.24H8.7V10.88h5.08a.73.73,0,0,0,.73-.73V2.66A.73.73,0,0,0,13.78,1.93ZM9,14H5.56v-.48H9Zm-.73-1H6.29V10.88H7v1a.25.25,0,0,0,.49,0v-1h.72Z"/><path class="cls-1" d="M1.45,7.74v.48H13.06V7.74H11.85V2.18a.2.2,0,0,0,0-.11l-1-1.94A.23.23,0,0,0,10.64,0H3.87a.25.25,0,0,0-.22.13l-1,1.94a.2.2,0,0,0,0,.11V7.74Zm7.25,0V4.84h1.45v2.9ZM9.91,2.9a.48.48,0,1,1-1,0V2.42h1Zm-1.45,0a.48.48,0,1,1-1,0V2.42h1ZM7,2.9a.47.47,0,0,1-.48.48A.48.48,0,0,1,6,2.9V2.42H7Zm-1.45,0a.49.49,0,0,1-1,0V2.42h1ZM3.14,2.42h1V2.9a.49.49,0,0,1-1,0Zm5.41-.49H7.64L8.37.48h.91Zm-1.45,0H6.19L6.92.48h.91Zm-1.45,0H4.74L5.47.48h.91Zm4.75.49h1V2.9a.48.48,0,1,1-1,0Zm.15-.49.33-.66.33.66Zm.06-1.2L10,1.93H9.1L9.82.48h.67ZM4,.48h.91L4.2,1.93H3.29ZM3.14,3.74a1,1,0,0,0,1.21-.2,1,1,0,0,0,1.36.09.38.38,0,0,0,.09-.09,1,1,0,0,0,1.36.09.38.38,0,0,0,.09-.09,1,1,0,0,0,1.37.09l.08-.09a1,1,0,0,0,1.37.09l.08-.09a1,1,0,0,0,1.21.2v4h-.72V4.59a.24.24,0,0,0-.24-.24H8.46a.24.24,0,0,0-.24.24V7.74H3.14Z"/><path class="cls-1" d="M7.25,4.35H4.11a.24.24,0,0,0-.24.24V6.77A.24.24,0,0,0,4.11,7H7.25a.25.25,0,0,0,.25-.24V4.59A.25.25,0,0,0,7.25,4.35ZM7,6.53H4.35V4.84H7Z"/><rect class="cls-1" x="4.84" y="8.95" width="0.48" height="0.48"/><rect class="cls-1" x="6.29" y="8.95" width="0.48" height="0.48"/><rect class="cls-1" x="7.74" y="8.95" width="0.48" height="0.48"/><rect class="cls-1" x="9.19" y="8.95" width="0.48" height="0.48"/><circle class="cls-1" cx="9.19" cy="6.29" r="0.24"/></g></g></svg>