<svg xmlns="http://www.w3.org/2000/svg" viewBox="0 0 14.73 12.43"><defs><style>.cls-1{fill:#111D5E;}</style></defs><g id="Calque_2" data-name="Calque 2"><g id="objects"><path class="cls-1" d="M13.83,0H.91A.91.91,0,0,0,0,.91V9.67a.91.91,0,0,0,.91.91H5.28L5.1,12H4.37a.21.21,0,0,0-.22.21.22.22,0,0,0,.22.22h6a.21.21,0,0,0,.21-.22.21.21,0,0,0-.21-.21H9.63l-.17-1.42h4.37a.9.9,0,0,0,.9-.91V.91A.9.9,0,0,0,13.83,0ZM5.54,12l.17-1.42h.8l.07.31a.82.82,0,0,0,.79.62.81.81,0,0,0,.78-.62l.08-.31H9L9.2,12ZM7,10.58h.83l0,.21a.36.36,0,0,1-.36.28A.38.38,0,0,1,7,10.79Zm7.35-.91h0a.47.47,0,0,1-.47.48H.91a.48.48,0,0,1-.48-.48V.91A.49.49,0,0,1,.91.43H13.83a.48.48,0,0,1,.47.48V9.67Z"/><path class="cls-1" d="M12.21.92H1.14a.22.22,0,0,0-.22.22v8.3a.22.22,0,0,0,.22.22H1.6a.22.22,0,0,0,.22-.22.21.21,0,0,0-.22-.21H1.35V1.35H12.21a.21.21,0,0,0,.22-.21A.22.22,0,0,0,12.21.92Z"/><path class="cls-1" d="M13.6.92h-.47a.22.22,0,0,0-.21.22.21.21,0,0,0,.21.21h.25V9.23H2.52a.21.21,0,0,0-.21.21.21.21,0,0,0,.21.22H13.6a.21.21,0,0,0,.21-.22V1.14A.21.21,0,0,0,13.6.92Z"/><path class="cls-1" d="M10.31,3.31a.21.21,0,0,0-.16-.08L5.07,3h0a.44.44,0,0,0-.18-.24l-.62-.42A.22.22,0,0,0,4,2.4.21.21,0,0,0,4,2.7l.62.42h0L5.44,5.9a.7.7,0,0,0,.11.23l-.28.58a.44.44,0,0,0,0,.43.34.34,0,0,0,.12.12.67.67,0,0,0-.09.34.68.68,0,1,0,1.35,0,.7.7,0,0,0,0-.25h2a.69.69,0,0,0,0,.25.68.68,0,1,0,1.35,0,.73.73,0,0,0-.07-.3.24.24,0,0,0,.07-.16.22.22,0,0,0-.22-.22h-4l.27-.53.17,0h.08L9.2,6A.9.9,0,0,0,10,5.3l.37-1.81A.28.28,0,0,0,10.31,3.31Zm-1.1,4a.25.25,0,1,1,0,.49.25.25,0,0,1,0-.49ZM6,7.35a.25.25,0,1,1,0,.49.25.25,0,0,1,0-.49Zm-.53-3-.27-.94.87,0,.15.9ZM6.12,6a.25.25,0,0,1-.27-.17l-.27-1h.69l.18,1.1ZM7.38,5.8l-.5.06L6.7,4.81h.68Zm0-1.42H6.63L6.49,3.5l.89,0Zm1.1,1.3-.67.07V4.81h.74Zm.11-1.3H7.81V3.56l.85,0Zm1,.84a.48.48,0,0,1-.41.38l-.24,0L9,4.81h.65Zm.17-.84H9l.07-.77.77,0Z"/></g></g></svg>