<svg xmlns="http://www.w3.org/2000/svg" viewBox="0 0 14.08 14.31"><defs><style>.cls-1{fill:#111D5E;}</style></defs><g id="Calque_2" data-name="Calque 2"><g id="objects"><path class="cls-1" d="M8.21,12.43H7.74v-2.3a.23.23,0,0,0-.23-.23.24.24,0,0,0-.24.23v2.3H1.17V7.74h2a.23.23,0,0,0,.24-.23.24.24,0,0,0-.24-.24H.94a.24.24,0,0,0-.24.24v4.92H.23a.24.24,0,0,0-.23.24v.47a1.17,1.17,0,0,0,1.17,1.17h6.1a1.17,1.17,0,0,0,1.18-1.17v-.47A.24.24,0,0,0,8.21,12.43ZM8,13.14a.7.7,0,0,1-.71.7H6.8v-.23a.23.23,0,0,0-.23-.24.24.24,0,0,0-.24.24v.23H2.11v-.23a.23.23,0,0,0-.23-.24.24.24,0,0,0-.24.24v.23H1.17a.7.7,0,0,1-.7-.7V12.9H8Z"/><path class="cls-1" d="M12.2,1.64h.47a.23.23,0,0,0,.23-.23.23.23,0,0,0-.23-.24H12.2a.7.7,0,0,0-.7.71v.23h-.24a.23.23,0,0,0-.23.24.23.23,0,0,0,.23.23h.24v.7a.23.23,0,1,0,.46,0v-.7h.24a.23.23,0,0,0,.23-.23.23.23,0,0,0-.23-.24H12V1.88A.24.24,0,0,1,12.2,1.64Z"/><path class="cls-1" d="M13.37.23H10.56a.71.71,0,0,0-.71.71v.47a.23.23,0,0,0,.24.23.23.23,0,0,0,.23-.23V.94A.24.24,0,0,1,10.56.7h2.81a.24.24,0,0,1,.24.24V3.75a.24.24,0,0,1-.24.24H10.56a.24.24,0,0,1-.24-.24V2.35a.23.23,0,0,0-.23-.24.24.24,0,0,0-.24.24v1.4a.71.71,0,0,0,.71.71h2.81a.71.71,0,0,0,.71-.71V.94A.71.71,0,0,0,13.37.23Z"/><path class="cls-1" d="M11,9.62A.94.94,0,1,0,12,8.68.94.94,0,0,0,11,9.62Zm1.4,0A.47.47,0,1,1,12,9.15.47.47,0,0,1,12.43,9.62Z"/><path class="cls-1" d="M13.37,7.51H10.56a.7.7,0,0,0-.71.7V11a.7.7,0,0,0,.71.7h2.81a.7.7,0,0,0,.71-.7v-.47a.24.24,0,0,0-.24-.24.23.23,0,0,0-.23.24V11a.23.23,0,0,1-.24.23H10.56a.23.23,0,0,1-.24-.23V8.21A.23.23,0,0,1,10.56,8h2.81a.23.23,0,0,1,.24.23V9.62a.23.23,0,0,0,.23.23.23.23,0,0,0,.24-.23V8.21A.7.7,0,0,0,13.37,7.51Z"/><path class="cls-1" d="M5.27,3a.2.2,0,0,0,.13,0,.19.19,0,0,0,.1,0l1.41-.7A.24.24,0,0,0,7,2a.32.32,0,0,0-.1-.1L5.5,1.2a.24.24,0,0,0-.34.21V2.82A.21.21,0,0,0,5.27,3Zm.36-1.22.65.32-.65.33Z"/><path class="cls-1" d="M5.87,4.22A2.11,2.11,0,1,0,3.75,2.11,2.11,2.11,0,0,0,5.87,4.22Zm0-3.75A1.64,1.64,0,1,1,4.22,2.11,1.64,1.64,0,0,1,5.87.47Z"/><path class="cls-1" d="M8.21,5.16a.23.23,0,0,0,.19-.09l.7-.94a.24.24,0,0,0,0-.33.23.23,0,0,0-.33.05L8,4.79a.23.23,0,0,0,.05.32A.24.24,0,0,0,8.21,5.16Z"/><path class="cls-1" d="M8.73,6a.24.24,0,0,0,.18.09.25.25,0,0,0,.15,0l.93-.7A.23.23,0,0,0,10,5a.25.25,0,0,0-.33,0l-.94.71a.24.24,0,0,0,0,.33Z"/><path class="cls-1" d="M11,6.52a.25.25,0,0,0-.28-.19h0l-1.17.24a.24.24,0,0,0,0,.47h.05l1.17-.24A.23.23,0,0,0,11,6.53Z"/><path class="cls-1" d="M.23,6.57H3.05a.23.23,0,0,0,.23-.24V2.58a.23.23,0,0,0-.23-.23H.23A.23.23,0,0,0,0,2.58V6.33A.24.24,0,0,0,.23,6.57ZM.47,2.82H2.82V6.1H.47Z"/><path class="cls-1" d="M2.11,3.28H1.64a.23.23,0,0,0-.23.24.23.23,0,0,0,.23.23h.47a.23.23,0,0,0,.24-.23A.24.24,0,0,0,2.11,3.28Z"/><path class="cls-1" d="M2.11,4.22H1.17a.23.23,0,0,0-.23.24.23.23,0,0,0,.23.23h.94a.23.23,0,0,0,.24-.23A.24.24,0,0,0,2.11,4.22Z"/><path class="cls-1" d="M2.11,5.16H1.17a.23.23,0,0,0-.23.24.23.23,0,0,0,.23.23h.94a.23.23,0,0,0,.24-.23A.24.24,0,0,0,2.11,5.16Z"/><path class="cls-1" d="M8,6.5a.24.24,0,0,0-.32-.09.23.23,0,0,0-.08.32l1,1.79L4.88,9.93h0l-.61.35-.4.24a.45.45,0,0,1-.36,0,.46.46,0,0,1-.28-.21l-.47-.82a.47.47,0,0,1,.17-.62l.81-.46.59,1a.24.24,0,0,0,.21.12.24.24,0,0,0,.23-.23.21.21,0,0,0,0-.12L4.09,8.18,7,5.75l.09.17A.25.25,0,0,0,7.46,6a.24.24,0,0,0,.08-.33l-.23-.4a.25.25,0,0,0-.16-.11.21.21,0,0,0-.2,0L3.67,7.92l-1,.58a.92.92,0,0,0-.43,1.06L2,9.7a.71.71,0,0,0-.26,1,.75.75,0,0,0,.43.33l.19,0a.73.73,0,0,0,.35-.09l.23-.14a1,1,0,0,0,.41.25,1.07,1.07,0,0,0,.25,0,.88.88,0,0,0,.47-.13l.2-.11.47.81A.7.7,0,0,0,6,10.93H6l-.43-.75L9.05,8.86a.2.2,0,0,0,.14-.14.21.21,0,0,0,0-.19Zm-5.54,4a.2.2,0,0,1-.17,0,.19.19,0,0,1-.15-.11.2.2,0,0,1,0-.17.19.19,0,0,1,.11-.15l.2-.12.24.41Zm3.09.65a.23.23,0,0,1,0,.18.19.19,0,0,1-.11.14.23.23,0,0,1-.32-.08l-.46-.81.39-.23h0Z"/></g></g></svg>