<svg xmlns="http://www.w3.org/2000/svg" viewBox="0 0 14.68 12.76"><defs><style>.cls-1{fill:#111D5E;}</style></defs><g id="Calque_2" data-name="Calque 2"><g id="objects"><path class="cls-1" d="M12.15,12.76H.61A.61.61,0,0,1,0,12.15V.61A.61.61,0,0,1,.61,0H12.15a.61.61,0,0,1,.61.61v3.9a.22.22,0,0,1-.44,0V.61a.17.17,0,0,0-.16-.17H.61A.18.18,0,0,0,.44.6h0V12.15a.17.17,0,0,0,.16.17H12.15a.17.17,0,0,0,.17-.16h0v-5a.22.22,0,1,1,.44,0v5A.61.61,0,0,1,12.15,12.76Z"/><path class="cls-1" d="M12.54,3.11H.22A.22.22,0,0,1,0,2.89a.22.22,0,0,1,.22-.22H12.54a.22.22,0,0,1,.22.22A.22.22,0,0,1,12.54,3.11Z"/><path class="cls-1" d="M3.69,2.32A.74.74,0,0,1,3,1.58a.75.75,0,1,1,.74.74Zm0-1a.3.3,0,0,0-.3.3.31.31,0,0,0,.3.3.3.3,0,0,0,.3-.3A.29.29,0,0,0,3.69,1.28Z"/><path class="cls-1" d="M1.72,2.32A.75.75,0,0,1,1,1.58.76.76,0,0,1,1.72.83a.74.74,0,0,1,.74.75h0A.74.74,0,0,1,1.72,2.32Zm0-1a.29.29,0,0,0-.3.3.3.3,0,0,0,.3.3.31.31,0,0,0,.3-.3H2A.3.3,0,0,0,1.72,1.28Z"/><path class="cls-1" d="M11.6,1.8H6a.23.23,0,1,1,0-.45H11.6a.22.22,0,0,1,.22.23A.22.22,0,0,1,11.6,1.8Z"/><path class="cls-1" d="M8.43,10.18A.22.22,0,0,1,8.21,10a.13.13,0,0,1,0-.06l.5-1.84A.21.21,0,0,1,8.78,8L12.69,4A1.17,1.17,0,1,1,14.34,5.7l-3.9,3.9a.27.27,0,0,1-.1.06l-1.85.51Zm.71-2L8.75,9.64l1.41-.39L14,5.38a.72.72,0,0,0,0-1,.76.76,0,0,0-1,0Z"/><path class="cls-1" d="M10.28,9.67a.2.2,0,0,1-.16-.07L8.78,8.26a.22.22,0,0,1,0-.31A.23.23,0,0,1,9.1,8l1.34,1.34a.23.23,0,0,1,0,.31A.21.21,0,0,1,10.28,9.67Z"/><path class="cls-1" d="M13.66,6.29a.24.24,0,0,1-.16-.07L12.16,4.88a.22.22,0,0,1,0-.31.21.21,0,0,1,.31,0l1.34,1.34a.23.23,0,0,1,0,.31A.24.24,0,0,1,13.66,6.29Z"/><path class="cls-1" d="M10.09,5.62H1.83a.22.22,0,0,1-.22-.22.22.22,0,0,1,.22-.23h8.26a.23.23,0,1,1,0,.45Z"/><path class="cls-1" d="M7.87,8h-6a.22.22,0,0,1-.22-.22.22.22,0,0,1,.22-.23h6a.22.22,0,0,1,.22.23A.22.22,0,0,1,7.87,8Z"/><path class="cls-1" d="M7.87,10.32h-6a.22.22,0,0,1-.22-.22.22.22,0,0,1,.22-.23h6a.22.22,0,0,1,.22.23A.22.22,0,0,1,7.87,10.32Z"/></g></g></svg>