<svg xmlns="http://www.w3.org/2000/svg" fill="#038418" viewBox="0 0 522 522"><defs><style>.cls-1{fill:#038418;}</style></defs><g id="Calque_2" data-name="Calque 2"><g id="objects"><path class="cls-1" d="M406.5,155.06h0a18.74,18.74,0,0,0-26.49,0L207.86,327.21,142,261.34a18.72,18.72,0,0,0-26.49,0h0a18.73,18.73,0,0,0,0,26.48l79.12,79.12a18.73,18.73,0,0,0,26.48,0L406.5,181.55A18.74,18.74,0,0,0,406.5,155.06Z"/><path class="cls-1" d="M445.55,76.44A261,261,0,0,0,76.45,445.56,261,261,0,0,0,445.55,76.44ZM261,492.93c-127.89,0-231.93-104-231.93-231.93S133.11,29.07,261,29.07,492.93,133.11,492.93,261,388.89,492.93,261,492.93Z"/></g></g></svg>