<svg xmlns="http://www.w3.org/2000/svg" viewBox="0 0 12.96 12.96"><defs><style>.cls-1{fill:#111D5E;}</style></defs><g id="Calque_2" data-name="Calque 2"><g id="objects"><path class="cls-1" d="M0,2.48a.05.05,0,0,0,0,0,.36.36,0,0,1,.57-.19l1.65,1L3,3.66l-.27.46L.54,2.83v7.29L2.77,8.84,3,9.29l-.13.07L.64,10.67c-.31.18-.48.13-.64-.19Z"/><path class="cls-1" d="M2.48,13l-.07,0a.36.36,0,0,1-.18-.51L3.65,10l0,0,.44.25L2.84,12.42h7.29L8.84,10.19l.46-.26c0,.05,0,.09.07.13.44.75.87,1.5,1.3,2.25.19.32.14.49-.19.65Z"/><path class="cls-1" d="M13,10.48a1.5,1.5,0,0,1-.19.25.3.3,0,0,1-.33,0L9.94,9.29l.26-.46,2.23,1.28V2.84L10.2,4.12l-.26-.45L10,3.6l2.29-1.32c.31-.18.48-.13.63.2Z"/><path class="cls-1" d="M9.44,6.49V8.91a.46.46,0,0,1-.52.53H4a.46.46,0,0,1-.52-.53V4A.46.46,0,0,1,4,3.51h4.9A.46.46,0,0,1,9.44,4ZM4.05,8.9H8.91V4.05H4.05Z"/><path class="cls-1" d="M9.29,3l-.44-.26L10.12.53H2.84L4.13,2.76,3.67,3l-.2-.34L2.27.59A.36.36,0,0,1,2.61,0h7.76a.36.36,0,0,1,.34.58c-.45.79-.91,1.57-1.36,2.35Z"/><path class="cls-1" d="M6.48,4.86A1.62,1.62,0,1,1,4.87,6.48,1.63,1.63,0,0,1,6.48,4.86Zm0,.53A1.09,1.09,0,1,0,7.57,6.47,1.09,1.09,0,0,0,6.48,5.39Z"/></g></g></svg>