<svg xmlns="http://www.w3.org/2000/svg" viewBox="0 0 512 483.16"><defs><style>.cls-1{fill:#ffffff;}.cls-2{fill:#ce1212;}.cls-3{fill:#fff;}.cls-4{fill:#ced5e0;}</style></defs><g id="Calque_2" data-name="Calque 2"><g id="Calque_1-2" data-name="Calque 1"><path class="cls-1" d="M482.49,57.65h-453A29.29,29.29,0,0,0,0,87.16V453.65a29.29,29.29,0,0,0,29.51,29.51h453A29.29,29.29,0,0,0,512,453.65V87.16C511.31,70.69,498.27,57.65,482.49,57.65Z"/><path class="cls-2" d="M511.31,170.89V87.16A29.29,29.29,0,0,0,481.8,57.65H29.51A29.29,29.29,0,0,0,0,87.16v83.73Z"/><path class="cls-3" d="M115.3,114.61h0A18.45,18.45,0,0,1,96.77,96.08V18.53A18.46,18.46,0,0,1,115.3,0h0a18.45,18.45,0,0,1,18.53,18.53V96.08A18.45,18.45,0,0,1,115.3,114.61Z"/><path class="cls-3" d="M396.7,114.61h0a18.45,18.45,0,0,1-18.53-18.53V18.53A18.45,18.45,0,0,1,396.7,0h0a18.46,18.46,0,0,1,18.53,18.53V96.08C415.23,106.38,406.31,114.61,396.7,114.61Z"/><rect class="cls-4" x="175.01" y="211.38" width="51.47" height="51.47"/><rect class="cls-4" x="285.51" y="211.38" width="51.47" height="51.47"/><rect class="cls-4" x="396.7" y="211.38" width="51.47" height="51.47"/><rect class="cls-4" x="63.83" y="297.86" width="51.47" height="51.47"/><rect class="cls-4" x="175.01" y="297.86" width="51.47" height="51.47"/><rect class="cls-4" x="285.51" y="297.86" width="51.47" height="51.47"/><rect class="cls-2" x="396.7" y="297.86" width="51.47" height="51.47"/><rect class="cls-4" x="63.83" y="384.34" width="51.47" height="51.47"/><rect class="cls-4" x="175.01" y="384.34" width="51.47" height="51.47"/><rect class="cls-4" x="285.51" y="384.34" width="51.47" height="51.47"/></g></g></svg>