<svg xmlns="http://www.w3.org/2000/svg" viewBox="0 0 512 512"><defs><style>.cls-1{fill:#fff;}.cls-2{fill:#038418;}</style></defs><g id="Calque_2" data-name="Calque 2"><g id="Calque_1-2" data-name="Calque 1"><path class="cls-1" d="M437,75A256,256,0,0,0,75,437,256,256,0,1,0,437,75ZM256,491C126.4,491,21,385.59,21,256S126.4,21,256,21,491,126.41,491,256,385.6,491,256,491Z"/><path class="cls-2" d="M491,256c0,129.59-105.43,235-235,235S21,385.59,21,256,126.4,21,256,21,491,126.41,491,256Z"/><path class="cls-1" d="M407,190.83,226.2,371.62a20.37,20.37,0,0,1-28.8,0L105,279.24A30.57,30.57,0,0,1,105,236h0a30.56,30.56,0,0,1,43.23,0l63.55,63.54,152-151.94a30.56,30.56,0,0,1,43.23,0h0A30.56,30.56,0,0,1,407,190.83Z"/></g></g></svg>