<?xml version="1.0"?>
<svg xmlns="http://www.w3.org/2000/svg" id="Capa_1" enable-background="new 0 0 512 512" height="512px" viewBox="0 0 512 512" width="512px"><g><path d="m154.678 139.97c-3.361-2.42-8.047-1.661-10.47 1.698-29.193 40.504-31.931 94.606-6.974 137.832 32.804 59.394 114.191 81.95 173.485 46.485 60.646-35.014 81.498-112.839 46.484-173.485-16.961-29.378-44.348-50.393-77.115-59.173-37.565-10.213-78.039-2.278-109.513 21.391-3.306 2.496-3.963 7.198-1.468 10.505 2.496 3.307 7.199 3.963 10.505 1.468 26.569-20.458 63.759-27.971 96.594-18.874 28.896 7.742 53.049 26.275 68.007 52.184 30.878 53.483 12.488 122.116-40.994 152.995-50.895 30.96-124.06 11.904-152.994-40.996-22.011-38.122-19.596-85.838 6.151-121.561 2.422-3.36 1.661-8.047-1.698-10.469z" fill="#111D5E"/><path d="m498.22 363.471c4.143 0 7.5-3.357 7.5-7.5v-18.471c0-8.714-6.409-15.939-14.756-17.263v-190.237c0-4.143-3.357-7.5-7.5-7.5s-7.5 3.357-7.5 7.5v190h-24.894v-108.698c7.295-2.11 12.649-8.836 12.649-16.802v-72c0-7.965-5.355-14.691-12.649-16.802v-51.464c0-12.406-10.094-22.5-22.5-22.5h-18.606v-4.234c0-4.5-1.093-8.747-3.018-12.5h56.518c6.893 0 12.5 5.607 12.5 12.5v67.5c0 4.143 3.357 7.5 7.5 7.5s7.5-3.357 7.5-7.5v-67.5c0-15.163-12.337-27.5-27.5-27.5-64.671 0-322.238 0-391.414 0-15.163 0-27.5 12.337-27.5 27.5v23.063h-10.77c-15.163 0-27.5 12.337-27.5 27.5s12.337 27.5 27.5 27.5h10.77v35h-10.77c-15.163 0-27.5 12.337-27.5 27.5s12.337 27.5 27.5 27.5h10.77v35h-10.77c-15.163 0-27.5 12.337-27.5 27.5s12.337 27.5 27.5 27.5h10.77v35h-10.77c-15.163 0-27.5 12.337-27.5 27.5s12.337 27.5 27.5 27.5h10.77v35h-10.77c-15.163 0-27.5 12.337-27.5 27.5s12.337 27.5 27.5 27.5h10.77v18.937c0 15.163 12.337 27.5 27.5 27.5h56.46c4.143 0 7.5-3.357 7.5-7.5s-3.357-7.5-7.5-7.5h-56.46c-6.893 0-12.5-5.607-12.5-12.5v-18.937h12.188c15.163 0 27.5-12.337 27.5-27.5s-12.337-27.5-27.5-27.5h-12.188v-35h12.188c15.163 0 27.5-12.337 27.5-27.5s-12.337-27.5-27.5-27.5h-12.188v-35h12.188c15.163 0 27.5-12.337 27.5-27.5s-12.337-27.5-27.5-27.5h-12.188v-35h12.188c15.163 0 27.5-12.337 27.5-27.5s-12.337-27.5-27.5-27.5h-12.188v-35h12.188c15.163 0 27.5-12.337 27.5-27.5s-12.337-27.5-27.5-27.5h-12.188v-23.063c0-6.893 5.607-12.5 12.5-12.5h310.414c6.893 0 12.5 5.607 12.5 12.5v457c0 6.893-5.607 12.5-12.5 12.5h-218.896c-4.143 0-7.5 3.357-7.5 7.5s3.357 7.5 7.5 7.5h299.896c15.163 0 27.5-12.337 27.5-27.5v-57.737c8.347-1.323 14.756-8.549 14.756-17.263v-18.471c0-4.143-3.357-7.5-7.5-7.5s-7.5 3.357-7.5 7.5v18.471c0 1.379-1.121 2.5-2.5 2.5h-37.15v-77h37.149c1.379 0 2.5 1.121 2.5 2.5v18.471c.001 4.142 3.358 7.5 7.501 7.5zm-413.983 74.592c0 6.893-5.607 12.5-12.5 12.5h-37.957c-6.893 0-12.5-5.607-12.5-12.5s5.607-12.5 12.5-12.5h37.957c6.893 0 12.5 5.608 12.5 12.5zm0-90c0 6.893-5.607 12.5-12.5 12.5h-37.957c-6.893 0-12.5-5.607-12.5-12.5s5.607-12.5 12.5-12.5h37.957c6.893 0 12.5 5.608 12.5 12.5zm0-90c0 6.893-5.607 12.5-12.5 12.5h-37.957c-6.893 0-12.5-5.607-12.5-12.5s5.607-12.5 12.5-12.5h37.957c6.893 0 12.5 5.608 12.5 12.5zm0-90c0 6.893-5.607 12.5-12.5 12.5h-37.957c-6.893 0-12.5-5.607-12.5-12.5s5.607-12.5 12.5-12.5h37.957c6.893 0 12.5 5.608 12.5 12.5zm0-90c0 6.893-5.607 12.5-12.5 12.5h-37.957c-6.893 0-12.5-5.607-12.5-12.5s5.607-12.5 12.5-12.5h37.957c6.893 0 12.5 5.608 12.5 12.5zm361.983 41.937c1.379 0 2.5 1.121 2.5 2.5v72c0 1.379-1.121 2.5-2.5 2.5h-36.256v-77zm-36.256 92h26.106v246c0 4.136-3.364 7.5-7.5 7.5h-18.606zm18.606-165.266c4.136 0 7.5 3.364 7.5 7.5v50.766h-26.106v-58.266zm47.394 380.266v57.5c0 6.893-5.607 12.5-12.5 12.5h-56.518c1.924-3.753 3.018-8 3.018-12.5v-4h18.606c12.406 0 22.5-10.094 22.5-22.5v-31z" fill="#111D5E"/><path d="m184.008 266.771c-.007.05-.013.101-.019.151l-1.268 10.99c-.46 3.982.813 7.976 3.494 10.955 2.652 2.948 6.436 4.632 10.397 4.632h.129l101.214-.941c3.956-.037 7.728-1.759 10.347-4.723 2.62-2.964 3.865-6.917 3.417-10.846l-1.146-10.058c-.007-.054-.014-.107-.021-.161-1.471-10.812-8.704-19.978-18.876-23.922l-13.047-5.06c11.364-11.083 19.143-27.947 20.758-47.387 1.809-1.435 3.16-3.458 3.728-5.856 1.85-7.819 4.787-27.63-7.851-42.67-.001 0-.003-.003-.004-.004-2.103-2.501-8.501-10.112-19.925-12.93-7.088-1.971-15.923.397-25.081-2.405-8.649-2.481-17.73-2.686-26.263-.594-6.815 1.673-19.62 6.399-28.812 19.254-7.962 11.134-9.942 24.936-5.727 39.911.686 2.438 2.213 4.477 4.206 5.849 1.739 19.452 9.665 36.291 21.162 47.262l-11.938 4.629c-10.17 3.946-17.403 13.112-18.874 23.924zm23.374-112.849c6.381-8.924 15.387-12.233 20.185-13.411 4.838-1.159 11.692-1.555 18.554.444 7.676 2.747 16.576 1.424 25.623 2.551 6.68 1.646 10.434 6.112 12.036 8.019l.002.003c6.742 8.025 6.519 18.907 5.486 25.688-5.876-1.263-8.932-4.764-13.806-11.63-3.544-4.99-9.075-8.189-15.176-8.776-6.058-.579-12.062 1.483-16.455 5.672-10.91 10.399-27.584 14.648-40.741 15.271-1.885-9.2-.446-17.204 4.292-23.831zm1.515 38.409c12.016-1.243 31.052-5.427 45.284-18.993 1.699-1.618 3.655-1.696 4.669-1.598 1.036.1 2.983.561 4.382 2.529 5.462 7.694 10.986 14.362 20.983 17.13-2.959 25.457-19.007 45.242-37.715 45.242-18.462.001-34.363-19.313-37.603-44.31zm-.589 64.503 21.861-8.478c5.147 2.125 10.63 3.286 16.33 3.286 5.98 0 11.722-1.274 17.084-3.599l22.67 8.792c5.063 1.963 8.669 6.513 9.427 11.886l1.009 8.849-98.935.92 1.127-9.765c.756-5.375 4.362-9.927 9.427-11.891z" fill="#111D5E"/><path d="m328.72 391h-163c-4.143 0-7.5 3.357-7.5 7.5s3.357 7.5 7.5 7.5h163c4.143 0 7.5-3.357 7.5-7.5s-3.358-7.5-7.5-7.5z" fill="#111D5E"/><path d="m328.72 422h-39c-4.143 0-7.5 3.357-7.5 7.5s3.357 7.5 7.5 7.5h39c4.143 0 7.5-3.357 7.5-7.5s-3.358-7.5-7.5-7.5z" fill="#111D5E"/><path d="m165.72 422c-4.143 0-7.5 3.357-7.5 7.5s3.357 7.5 7.5 7.5h89c4.143 0 7.5-3.357 7.5-7.5s-3.357-7.5-7.5-7.5z" fill="#111D5E"/></g></svg>
